<?xml version="1.0" standalone="no"?>
<!DOCTYPE svg PUBLIC "-//W3C//DTD SVG 20010904//EN"
 "http://www.w3.org/TR/2001/REC-SVG-20010904/DTD/svg10.dtd">
<svg version="1.0" xmlns="http://www.w3.org/2000/svg"
 width="1280.000000pt" height="742.000000pt" viewBox="0 0 1280.000000 742.000000"
 preserveAspectRatio="xMidYMid meet">
<metadata>
Created by potrace 1.15, written by Peter Selinger 2001-2017
</metadata>
<g transform="translate(0.000000,742.000000) scale(0.100000,-0.100000)"
fill="#000000" stroke="none">
<path d="M8009 7404 c-10 -13 -15 -74 -17 -255 -5 -259 1 -294 44 -305 46 -12
51 -2 57 106 3 70 10 106 19 111 7 5 42 8 78 7 l65 -3 3 -144 c2 -109 -1 -146
-10 -153 -7 -4 -49 -8 -93 -8 -67 0 -86 -4 -120 -25 -29 -18 -55 -24 -93 -25
-62 0 -95 -15 -176 -81 -45 -37 -74 -51 -116 -60 -149 -30 -176 -57 -167 -167
5 -69 25 -106 69 -131 23 -13 33 -12 107 13 45 15 88 26 95 23 10 -4 15 -31
17 -90 3 -67 8 -90 24 -107 34 -39 97 -80 122 -80 33 0 94 -33 131 -70 17 -17
54 -69 82 -115 28 -47 63 -99 77 -115 l25 -30 -25 0 c-38 0 -51 -23 -42 -78
19 -118 22 -147 19 -151 -1 -1 -38 45 -81 104 -164 226 -465 610 -488 624 -22
14 -29 13 -75 -6 -27 -12 -52 -17 -56 -12 -8 14 -42 11 -77 -7 -36 -19 -357
-253 -399 -292 -16 -14 -28 -36 -28 -48 0 -40 -11 -54 -103 -130 -91 -74 -113
-84 -134 -63 -9 9 -23 5 -57 -15 -65 -38 -166 -124 -166 -141 0 -8 -21 -38
-46 -66 -43 -49 -94 -138 -94 -166 0 -24 -56 -76 -141 -134 -134 -90 -268
-201 -432 -359 -104 -100 -153 -140 -165 -137 -9 3 -37 13 -62 22 -82 30 -161
13 -555 -120 -288 -97 -570 -174 -715 -196 -119 -17 -259 -8 -348 24 -100 35
-158 71 -340 216 -238 188 -338 261 -419 303 l-74 38 -187 0 c-270 0 -1099
-41 -1237 -61 -128 -18 -198 -83 -220 -202 l-11 -62 -124 -42 c-69 -23 -138
-49 -155 -57 -54 -26 -293 -99 -440 -135 -197 -48 -332 -49 -515 -1 -41 11
-85 20 -97 20 -30 0 -100 -64 -119 -109 -34 -78 -26 -314 14 -434 22 -68 44
-78 136 -64 l69 11 28 -32 c20 -22 29 -43 29 -67 0 -30 -5 -37 -40 -55 -44
-22 -43 -19 -85 -211 -14 -63 -39 -166 -55 -229 -16 -63 -39 -167 -51 -231
-20 -105 -20 -120 -8 -160 12 -38 18 -44 40 -42 50 3 305 169 329 214 7 12 25
74 41 138 61 238 123 433 152 469 7 8 48 12 144 12 97 0 162 6 234 21 56 11
103 19 105 16 2 -2 -24 -22 -58 -45 -107 -69 -390 -332 -403 -373 -4 -10 -10
-19 -15 -19 -4 0 -40 -46 -78 -103 -188 -276 -267 -480 -328 -847 -16 -101
-19 -393 -4 -541 11 -102 46 -252 96 -407 37 -114 171 -382 253 -503 78 -118
295 -346 391 -412 199 -137 330 -206 520 -272 180 -62 483 -93 700 -70 166 18
414 98 580 187 177 96 374 254 501 401 79 92 196 261 238 346 16 31 38 67 49
81 l20 24 118 -44 c154 -57 148 -57 996 -31 370 11 988 25 1373 31 385 6 793
15 908 21 148 6 220 6 251 -2 59 -15 97 -2 200 69 l81 55 37 -22 c47 -27 127
-29 157 -4 15 13 25 39 34 88 14 78 18 81 115 84 41 1 43 3 67 54 18 38 37 60
70 80 70 44 88 73 82 130 -4 42 -1 50 20 65 97 68 114 96 124 212 4 50 22 134
43 204 40 131 55 194 122 516 41 192 46 234 51 390 4 130 1 220 -12 350 -19
191 -17 542 5 730 32 270 93 456 186 559 53 59 73 67 111 47 16 -8 58 -20 93
-26 125 -23 177 -59 209 -144 18 -49 25 -90 71 -389 42 -271 97 -457 206 -688
35 -75 64 -142 64 -149 0 -7 -33 -81 -74 -164 -137 -279 -218 -521 -290 -865
-37 -175 -46 -294 -25 -333 15 -28 55 -19 135 32 l63 40 5 -33 c3 -17 8 -63
11 -102 15 -178 89 -465 174 -675 56 -137 197 -359 336 -528 221 -268 611
-503 966 -582 263 -59 619 -50 821 20 204 71 313 121 423 198 299 208 517 446
658 719 101 197 131 276 183 479 54 215 69 371 61 639 -10 294 -54 480 -186
778 -69 156 -110 225 -228 385 -240 325 -549 548 -933 672 l-130 43 36 39 c53
59 45 81 -31 91 -103 14 -618 1 -709 -18 -100 -21 -305 -92 -447 -155 -61 -28
-117 -50 -125 -50 -8 0 -25 18 -40 41 -18 29 -40 47 -77 64 -60 27 -91 64
-212 254 -44 69 -97 153 -119 186 -21 33 -90 143 -153 244 l-116 184 22 44
c32 65 29 188 -5 292 l-27 78 26 59 c51 118 101 313 102 396 0 76 -1 80 -69
214 -89 173 -107 194 -174 194 -114 0 -340 -167 -445 -328 l-35 -54 -16 24
c-8 12 -22 39 -30 58 -8 19 -29 49 -46 65 -45 42 -101 116 -219 289 l-101 148
25 52 c48 99 63 299 26 360 -15 25 -20 57 -23 171 -3 81 -9 149 -16 162 -13
24 -67 43 -124 43 -20 0 -48 4 -62 10 -24 9 -26 14 -26 72 -1 99 -17 191 -36
205 -24 18 -49 16 -65 -3z m32 -202 c-3 -138 -19 -189 -20 -62 -1 95 7 175 17
166 2 -3 4 -50 3 -104z m259 -571 c0 -26 3 -69 6 -95 l7 -46 -82 0 c-106 0
-121 13 -121 103 0 36 5 68 12 75 7 7 44 12 95 12 l83 0 0 -49z m-313 -3 c18
-13 42 -41 53 -64 37 -74 21 -145 -46 -203 -42 -37 -54 -30 -30 18 10 18 16
55 16 92 0 58 -2 64 -37 99 -21 20 -45 40 -53 43 -13 5 -12 8 4 21 27 22 54
20 93 -6z m-71 -105 c40 -44 45 -90 13 -119 -17 -15 -40 -19 -125 -22 l-104
-4 0 55 c0 63 4 68 86 102 79 32 91 31 130 -12z m-283 -65 c21 -44 14 -83 -19
-104 -65 -43 -99 59 -41 124 26 28 38 25 60 -20z m626 -4 c39 -8 39 -23 1 -92
l-29 -54 108 -161 c166 -249 181 -280 146 -294 -24 -8 -50 21 -126 142 -120
190 -193 289 -237 318 -58 39 -54 51 13 42 65 -8 74 7 25 43 -51 38 -38 55 46
61 12 0 36 -2 53 -5z m-364 -164 c34 -13 27 -35 -10 -35 -18 0 -33 8 -42 23
-14 20 -14 22 5 22 11 0 33 -5 47 -10z m115 -35 c0 -8 -4 -15 -10 -15 -5 0
-10 7 -10 15 0 8 5 15 10 15 6 0 10 -7 10 -15z m-116 -51 c38 7 106 -8 117
-26 12 -18 11 -95 0 -102 -5 -4 -23 5 -39 19 -36 30 -42 31 -42 5 0 -28 -20
-25 -67 9 -42 30 -69 80 -59 107 6 15 8 15 32 -1 17 -11 37 -15 58 -11z m207
-4 c5 0 35 -39 66 -87 31 -49 82 -122 114 -163 80 -106 109 -165 109 -222 0
-53 -14 -64 -25 -20 -12 49 -73 166 -108 207 -18 22 -47 63 -62 90 -16 28 -53
83 -82 122 -57 78 -62 89 -37 79 9 -3 20 -6 25 -6z m-661 -74 c-18 -16 -344
-256 -383 -281 -38 -24 -43 -14 -9 18 44 42 376 277 392 277 13 0 13 -2 0 -14z
m256 -154 c58 -70 127 -156 152 -192 26 -36 68 -92 94 -125 56 -70 62 -90 21
-73 -77 30 -481 26 -671 -7 -184 -32 -438 -122 -676 -242 -63 -31 -119 -54
-122 -50 -4 4 0 22 9 41 15 31 95 97 312 256 34 25 90 68 126 96 110 86 560
416 587 430 17 9 31 10 43 3 10 -5 66 -67 125 -137z m553 83 c0 -5 -11 3 -24
18 -14 15 -25 33 -25 40 0 7 11 -1 25 -18 13 -16 24 -34 24 -40z m-99 -50 c0
-32 -14 -32 -45 0 -24 23 -33 64 -18 79 12 12 63 -52 63 -79z m1080 23 c32
-52 24 -69 -45 -88 -74 -20 -185 -91 -245 -156 -42 -46 -44 -49 -22 -52 12 -2
33 5 47 16 43 34 169 91 239 109 61 15 69 15 83 0 37 -36 25 -378 -17 -490
-30 -80 -44 -84 -36 -11 13 130 19 361 8 380 -9 16 -11 14 -16 -16 -3 -19 -7
-87 -10 -150 -6 -120 -34 -252 -59 -278 -13 -12 -23 -13 -66 -2 -61 14 -99 52
-192 195 -125 191 -119 178 -103 211 26 54 154 203 222 259 64 54 152 105 179
105 7 0 22 -15 33 -32z m-1015 -151 c50 -54 115 -170 102 -184 -11 -11 -82 64
-132 138 -73 109 -55 136 30 46z m405 -87 c0 -34 30 -83 204 -335 91 -132 165
-245 166 -252 0 -7 -18 -31 -41 -55 l-41 -43 -23 27 c-13 15 -78 116 -146 225
-67 108 -138 214 -157 235 l-34 38 31 35 c50 58 38 71 -29 34 -41 -23 -73 -20
-68 8 4 20 103 103 123 103 8 0 15 -9 15 -20z m800 -101 c0 -17 -4 -28 -10
-24 -5 3 -10 17 -10 31 0 13 5 24 10 24 6 0 10 -14 10 -31z m-1182 -70 c7 -12
11 -23 8 -27 -7 -6 -46 27 -46 40 0 16 25 8 38 -13z m79 -15 c-9 -10 -38 16
-31 28 4 6 13 4 22 -6 9 -8 13 -19 9 -22z m-1607 -24 c0 -5 -4 -10 -9 -10 -4
0 -29 -16 -54 -35 -25 -19 -49 -35 -53 -35 -12 0 29 42 66 66 39 26 50 29 50
14z m1644 -12 c-34 -58 -58 -79 -87 -76 -30 3 -52 28 -24 28 8 0 34 13 58 30
47 32 65 38 53 18z m157 -20 c49 -53 63 -78 51 -90 -26 -26 -80 28 -96 95 -9
37 8 35 45 -5z m-723 -4 c12 -4 22 -12 22 -20 0 -29 -44 -38 -200 -38 -114 -1
-161 3 -179 13 -20 11 -22 15 -9 22 38 21 308 38 366 23z m639 -28 c41 -52 73
-117 73 -148 0 -31 -17 -38 -27 -10 -3 9 -23 46 -43 82 -43 74 -56 110 -41
110 6 0 23 -15 38 -34z m-971 -75 c24 -7 55 -6 93 1 32 6 92 7 139 4 l83 -7
47 41 c44 39 50 42 90 36 191 -26 296 -197 309 -501 7 -150 -9 -248 -58 -372
-39 -99 -84 -166 -155 -234 -70 -66 -108 -87 -177 -99 -49 -9 -510 -2 -1487
19 -356 8 -390 11 -455 31 -116 37 -185 82 -185 122 0 58 84 156 295 342 142
126 246 205 371 284 320 201 518 289 844 376 l124 33 43 -33 c24 -18 60 -38
79 -43z m937 -8 c23 -38 47 -89 47 -100 0 -3 -7 1 -16 8 -16 13 -74 108 -74
122 0 19 22 3 43 -30z m236 -52 c29 -29 49 -73 57 -121 6 -34 4 -42 -7 -38
-15 4 -119 153 -119 169 0 17 50 9 69 -10z m-254 -52 c-11 -17 -35 4 -35 30
l1 26 19 -24 c11 -12 18 -27 15 -32z m137 -48 c-3 -29 -40 -91 -54 -91 -11 0
-1 74 14 103 14 26 44 17 40 -12z m-121 -11 c23 -13 25 -48 3 -57 -10 -4 -29
7 -52 31 l-37 36 33 0 c18 0 42 -5 53 -10z m160 -68 c-21 -42 -98 -132 -112
-132 -18 0 -9 27 17 51 14 13 42 48 60 77 39 59 65 62 35 4z m73 -3 c-8 -13
-24 -1 -24 18 0 13 3 13 15 3 8 -7 12 -16 9 -21z m-296 -17 c3 -19 -1 -23 -15
-20 -10 2 -19 14 -21 26 -3 19 1 23 15 20 10 -2 19 -14 21 -26z m441 -1 c12
-16 21 -37 21 -46 0 -14 -6 -16 -32 -11 -40 8 -38 5 -31 49 7 45 15 46 42 8z
m475 23 c20 -8 21 -30 2 -37 -7 -3 -35 -9 -62 -13 -52 -7 -150 -40 -171 -56
-38 -30 34 -23 121 11 39 15 135 16 149 2 16 -16 15 -129 -2 -168 -7 -18 -22
-35 -33 -39 -45 -14 -218 26 -278 64 -55 35 -57 57 -14 124 47 74 217 139 288
112z m-851 -90 c9 -9 -12 -60 -33 -79 -16 -15 -22 -15 -35 -5 -21 17 -19 67 3
79 19 11 55 14 65 5z m317 -53 c0 -21 -12 -40 -49 -74 -81 -76 -183 -117 -293
-117 -91 0 -71 38 29 55 57 10 174 71 233 121 61 52 80 56 80 15z m-135 -1 c0
-19 -136 -89 -187 -97 -21 -3 -38 -2 -38 3 1 13 192 114 210 111 8 -1 15 -9
15 -17z m271 -27 c31 -54 68 -111 421 -648 299 -455 315 -480 347 -544 23 -44
31 -69 53 -158 4 -17 -13 -45 -73 -121 -44 -54 -100 -126 -126 -160 -27 -34
-55 -62 -63 -62 -33 0 -119 183 -180 384 -65 217 -103 452 -121 748 -6 103 -9
118 -25 123 -56 18 -116 106 -160 233 -10 29 -41 91 -69 136 -48 81 -61 116
-40 116 5 0 21 -21 36 -47z m-161 -169 c0 -10 -8 -20 -17 -22 -18 -3 -26 27
-11 42 12 11 28 0 28 -20z m468 7 c55 -9 81 -31 142 -118 36 -51 471 -724 568
-880 35 -56 35 -97 0 -129 -49 -46 -59 -47 -88 -13 -14 18 -35 50 -47 73 -12
22 -57 95 -101 161 -154 228 -573 884 -584 912 -5 14 -1 15 28 9 19 -4 56 -11
82 -15z m-273 -55 c4 -20 5 -36 1 -36 -13 0 -43 61 -37 77 9 23 26 4 36 -41z
m-273 -1 c42 -77 40 -85 -22 -156 -31 -35 -70 -86 -88 -113 l-32 -49 -3 34
c-6 56 40 291 61 312 28 28 59 18 84 -28z m-5683 26 c4 -5 -9 -41 -28 -81 -31
-63 -69 -174 -122 -353 -10 -33 -23 -61 -30 -64 -6 -2 -29 4 -51 15 -83 43
-348 119 -538 156 -94 18 -328 51 -469 66 -54 6 -102 13 -107 16 -17 10 -9 71
14 104 29 44 71 68 138 80 86 15 323 29 753 45 220 9 402 18 405 20 8 8 29 6
35 -4z m157 -41 c33 -17 78 -47 99 -67 22 -19 104 -131 182 -247 220 -327 341
-437 542 -491 60 -16 80 -17 158 -7 99 12 324 84 627 201 256 99 787 321 809
338 15 13 13 14 -23 9 -48 -7 -121 -34 -660 -254 -231 -94 -456 -180 -500
-191 -196 -49 -421 -54 -505 -11 -74 37 -163 105 -221 167 -66 72 -358 492
-359 516 0 20 186 -122 306 -233 95 -88 244 -197 329 -240 83 -42 157 -53 305
-47 189 8 348 44 754 172 418 132 458 143 548 152 84 7 98 -2 98 -66 0 -68
-45 -138 -169 -261 -114 -113 -298 -257 -458 -356 -195 -122 -553 -298 -668
-329 -27 -8 -90 -28 -140 -45 -166 -60 -349 -76 -453 -41 -118 40 -263 135
-396 261 -76 73 -108 111 -241 290 -22 30 -88 107 -147 172 -60 64 -108 126
-108 136 0 28 75 259 115 353 37 89 78 149 101 149 8 0 42 -14 75 -30z m5341
25 c2 -3 1 -33 -4 -68 -15 -109 -66 -457 -144 -982 -41 -280 -86 -589 -100
-685 -13 -96 -38 -263 -54 -370 -16 -107 -37 -253 -45 -325 -27 -219 -48 -289
-108 -352 -34 -36 -49 -35 -42 5 3 15 25 171 50 347 75 535 143 998 154 1045
5 25 15 92 21 150 6 58 24 184 40 280 16 96 38 245 50 330 11 85 38 256 59
379 30 174 43 228 57 238 18 13 56 18 66 8z m375 -49 c15 -13 43 -44 61 -70
28 -38 31 -47 18 -52 -25 -10 -87 5 -133 32 -67 39 -80 84 -31 104 37 14 55
11 85 -14z m-586 -308 c-14 -105 -35 -140 -26 -44 3 38 11 92 18 120 16 73 21
25 8 -76z m-6446 37 c228 -20 275 -26 275 -35 0 -8 -43 -12 -332 -30 -273 -17
-353 -34 -855 -180 -35 -10 -63 -15 -63 -11 0 9 143 68 315 129 61 22 150 56
199 77 90 37 191 62 256 64 19 0 112 -6 205 -14z m3918 -126 c26 -23 47 -45
45 -50 -5 -14 -253 -149 -256 -139 -2 5 12 30 30 54 52 71 78 108 99 144 10
17 22 32 26 32 5 0 30 -19 56 -41z m-3291 2 c173 -40 312 -111 431 -221 65
-60 282 -338 272 -348 -2 -2 -21 9 -42 25 -102 81 -294 157 -508 203 -159 34
-499 39 -760 11 -399 -44 -562 -60 -645 -66 -47 -3 -141 -10 -210 -15 -69 -6
-231 -14 -360 -20 l-235 -9 -22 -26 c-13 -14 -23 -33 -23 -41 0 -26 -23 -15
-71 35 -48 49 -85 108 -75 118 2 3 35 -5 73 -18 60 -21 85 -23 208 -22 150 2
280 23 587 97 80 20 197 45 259 56 105 19 141 31 127 45 -10 11 -178 -16 -428
-67 -176 -37 -277 -52 -359 -56 -89 -4 -113 -2 -109 8 2 7 87 41 188 76 102
34 250 85 330 113 164 57 288 90 470 125 121 24 137 25 470 21 304 -3 355 -6
432 -24z m5713 -36 c-36 -70 -91 -135 -115 -135 -9 0 -23 7 -30 15 -10 12 -6
20 26 47 22 18 61 56 89 85 27 28 51 50 54 48 2 -3 -9 -29 -24 -60z m-2205
-71 l54 -16 -24 -18 c-61 -46 -580 -326 -614 -332 -26 -4 -63 86 -45 108 6 7
99 60 207 116 107 57 222 118 256 136 64 34 65 34 166 6z m-5645 -4 c47 -11
99 -20 115 -20 34 0 48 -16 22 -24 -34 -11 -206 -8 -249 3 -47 13 -48 14 -33
42 13 24 38 24 145 -1z m7904 7 c6 -8 8 -17 5 -20 -9 -8 -44 11 -44 23 0 15
26 12 39 -3z m-900 -37 c68 -5 126 -12 129 -15 3 -3 -13 -72 -36 -153 -23 -81
-42 -152 -42 -159 0 -6 -7 -18 -15 -27 -13 -13 -22 -11 -80 15 -35 16 -113 43
-172 60 -104 31 -116 32 -298 33 l-190 1 -124 -38 c-68 -21 -140 -45 -159 -53
-19 -8 -36 -13 -37 -12 -6 6 -175 348 -175 353 0 7 290 6 318 -1 17 -5 22 -14
22 -38 0 -38 15 -56 47 -56 30 0 66 55 52 81 -5 10 -9 21 -9 25 0 9 609 -3
769 -16z m-6554 -26 c-27 -7 -61 -14 -75 -13 -24 0 -24 0 -6 14 13 9 41 15 75
14 l56 -1 -50 -14z m6965 0 c22 -5 39 -18 56 -46 28 -44 83 -73 120 -64 13 4
47 -3 76 -14 77 -29 102 -26 135 15 30 38 62 45 84 19 10 -13 11 -35 1 -121
-6 -59 -13 -108 -15 -110 -2 -2 -20 12 -40 30 -20 20 -89 58 -164 91 -70 32
-189 85 -263 119 -177 79 -185 87 -93 87 39 0 85 -3 103 -6z m245 -16 c28 -6
65 -18 84 -25 34 -14 34 -15 15 -34 -20 -19 -20 -19 -79 1 -32 11 -73 20 -91
20 -44 0 -84 16 -84 34 0 27 43 28 155 4z m-7337 -3 c-2 -3 -20 -7 -39 -10
l-34 -5 35 14 c32 12 50 13 38 1z m5516 -139 c58 -108 67 -129 55 -141 -20
-19 -432 -246 -566 -311 -62 -31 -118 -52 -124 -48 -15 9 -107 202 -115 241
-5 25 -2 34 17 47 28 19 50 21 43 3 -7 -18 33 -67 55 -67 19 0 44 24 54 53 5
12 -1 26 -17 42 -29 29 -37 23 129 112 260 141 320 167 282 125 -24 -26 -21
-49 9 -68 19 -13 32 -15 51 -8 60 21 55 90 -7 111 l-35 11 25 10 c14 5 32 12
40 15 8 3 19 4 25 3 5 -1 41 -60 79 -130z m-5960 76 c26 -20 92 -50 145 -69
59 -20 85 -33 68 -33 -60 0 -272 87 -292 121 -9 14 5 30 18 23 7 -4 34 -23 61
-42z m169 31 c-7 -2 -19 -2 -25 0 -7 3 -2 5 12 5 14 0 19 -2 13 -5z m110 0
c-7 -2 -21 -2 -30 0 -10 3 -4 5 12 5 17 0 24 -2 18 -5z m7040 -10 c4 -3 -2
-17 -14 -29 -26 -28 -22 -54 13 -74 33 -18 56 -8 76 33 7 15 17 27 21 27 26 0
339 -155 369 -183 14 -13 22 -32 22 -53 0 -57 41 -64 92 -16 24 22 28 23 34 8
7 -17 -19 -104 -55 -189 -18 -42 -24 -47 -43 -41 -18 5 -214 92 -564 250 l-52
23 14 72 c27 143 57 202 87 172z m35 -61 c2 -7 -3 -12 -12 -12 -9 0 -16 7 -16
16 0 17 22 14 28 -4z m3705 -39 c68 -6 92 -22 69 -45 -5 -5 -101 -16 -213 -24
-210 -14 -300 -25 -404 -50 -112 -28 -250 -77 -380 -136 -216 -99 -192 -92
-212 -62 -16 25 -16 27 8 45 39 30 277 145 359 172 214 73 573 119 773 100z
m-11082 -60 c18 -32 48 -79 66 -105 l35 -48 -35 0 c-53 0 -75 37 -106 173 -13
53 3 46 40 -20z m2434 7 c123 -24 308 -92 399 -147 83 -50 152 -103 328 -254
171 -147 219 -180 295 -209 56 -21 224 -40 360 -40 l72 0 3 -37 c2 -30 9 -41
31 -51 15 -7 25 -17 22 -22 -8 -13 -284 -184 -552 -342 l-112 -66 -40 62 c-23
34 -41 68 -41 74 0 6 18 23 40 37 54 34 66 61 47 106 -21 50 -198 250 -316
357 -200 182 -318 237 -651 304 -103 21 -142 23 -370 22 -245 0 -595 -21 -990
-60 -85 -8 -197 -18 -249 -21 l-95 -6 24 37 23 38 -20 26 c-11 15 -44 41 -74
59 -30 18 -61 37 -69 42 -10 7 13 10 75 11 229 1 716 42 1025 85 159 22 201
24 450 20 230 -3 293 -7 385 -25z m2803 -313 l140 -282 93 -99 93 -98 -47 -87
-46 -87 71 -124 c62 -109 72 -135 82 -202 6 -42 16 -82 21 -87 6 -6 79 -24
163 -41 163 -32 222 -53 189 -66 -21 -8 -199 18 -274 41 -41 12 -61 26 -96 68
-50 59 -107 141 -107 154 0 5 -13 25 -30 45 -40 48 -69 118 -76 184 -7 59 -21
77 -59 77 -17 0 -34 10 -50 31 -46 60 -57 103 -65 256 -9 167 -18 197 -104
338 -60 100 -90 155 -100 188 -7 23 26 74 49 74 7 0 74 -123 153 -283z m1545
268 c154 -27 325 -100 412 -177 52 -46 126 -145 155 -209 14 -32 20 -66 20
-126 0 -79 -3 -91 -44 -183 -6 -14 -43 -56 -81 -95 -56 -55 -91 -80 -170 -119
-210 -103 -203 -101 -440 -101 -238 0 -284 9 -447 84 -257 118 -389 290 -357
466 38 212 307 395 684 464 77 14 174 12 268 -4z m-6362 -76 c102 -33 168 -62
173 -76 9 -24 -2 -49 -27 -61 -12 -7 -33 -21 -47 -32 -36 -29 -166 -80 -205
-80 -29 0 -35 5 -48 38 -24 60 -32 133 -16 143 20 12 152 11 203 -2 24 -6 56
-9 72 -7 28 4 27 5 -21 27 -37 17 -76 24 -147 28 -102 6 -125 13 -113 33 9 14
119 8 176 -11z m9433 5 c9 -22 -3 -32 -14 -14 -12 19 -12 30 -1 30 5 0 12 -7
15 -16z m1464 -31 c378 -113 728 -387 975 -763 178 -272 275 -564 322 -965 14
-126 14 -150 0 -279 -22 -190 -43 -325 -65 -418 -32 -128 -151 -403 -220 -503
-15 -22 -37 -59 -49 -83 -26 -52 -172 -221 -272 -318 -379 -363 -923 -523
-1424 -418 -103 22 -293 88 -399 138 -255 123 -516 357 -697 624 -80 119 -194
345 -239 477 -38 111 -85 342 -102 498 -18 176 10 447 71 683 71 274 251 602
432 782 46 46 89 57 89 22 0 -11 5 -20 10 -20 6 0 15 -10 20 -22 5 -13 19 -34
29 -48 11 -14 23 -37 27 -53 5 -23 0 -33 -34 -65 -64 -59 -219 -320 -282 -471
-16 -40 -47 -139 -67 -220 l-38 -146 0 -275 c1 -245 3 -286 23 -377 43 -196
147 -449 248 -598 113 -168 291 -344 457 -453 102 -67 275 -155 346 -176 95
-28 281 -49 446 -50 150 -1 168 1 290 32 277 71 556 248 734 465 186 229 312
492 371 778 31 148 38 401 16 574 -26 205 -61 333 -134 490 -96 207 -181 332
-337 494 -115 119 -249 222 -371 284 -83 42 -285 114 -354 125 -36 6 -123 16
-195 22 -122 11 -139 10 -285 -14 -160 -27 -243 -50 -368 -106 -59 -27 -77
-31 -96 -22 -23 10 -118 160 -110 173 6 11 210 95 299 123 173 55 346 86 595
106 74 6 136 13 139 15 8 9 87 -8 199 -42z m-6308 -35 c63 -96 50 -138 -20
-66 -49 51 -72 91 -64 112 13 34 44 16 84 -46z m1025 27 c-61 -53 -610 -355
-644 -355 -25 0 2 19 88 64 106 54 418 228 506 282 85 52 104 55 50 9z m1290
-9 c156 -65 525 -239 525 -247 0 -18 -177 55 -531 219 -82 38 -116 62 -87 62
7 0 49 -15 93 -34z m-1960 4 c-3 -5 -11 -10 -16 -10 -6 0 -7 5 -4 10 3 6 11
10 16 10 6 0 7 -4 4 -10z m-473 -37 c27 -25 22 -49 -17 -73 -32 -20 -40 -21
-85 -10 -28 7 -52 16 -55 20 -5 8 30 33 90 64 38 20 44 20 67 -1z m3094 -100
c-4 -43 -14 -119 -22 -169 -8 -50 -52 -358 -99 -685 -47 -327 -90 -611 -96
-631 -10 -38 -41 -57 -73 -45 -16 6 -27 70 -20 117 3 19 0 78 -6 130 -6 52
-11 106 -11 120 0 14 28 86 62 160 94 205 100 225 108 390 7 140 9 147 41 204
32 56 34 66 40 190 7 115 11 141 40 214 18 45 35 82 38 82 3 0 2 -35 -2 -77z
m-603 38 c180 -73 495 -227 484 -237 -8 -8 -475 200 -547 244 -49 30 -21 27
63 -7z m-5338 9 c427 -28 705 -139 941 -374 49 -50 125 -138 167 -195 l78
-104 -32 -33 -31 -32 -58 71 c-92 115 -317 329 -405 387 -224 146 -437 212
-810 250 -128 13 -153 20 -110 30 45 11 84 11 260 0z m7827 -68 l22 -35 -30
-24 c-79 -65 -86 -66 -128 -4 l-28 40 31 27 c79 67 74 64 94 46 10 -8 27 -31
39 -50z m-4914 21 c5 -17 -26 -29 -40 -15 -6 6 -7 15 -3 22 9 14 37 9 43 -7z
m-172 -34 c18 -15 27 -91 12 -100 -28 -18 -123 20 -134 53 -8 26 4 56 24 61
22 7 84 -2 98 -14z m1064 2 c0 -12 -9 -20 -25 -23 -31 -6 -32 6 -3 26 28 20
28 20 28 -3z m1545 -11 c8 -13 -1 -13 -26 0 -10 6 -19 15 -19 21 0 11 35 -5
45 -21z m-6585 9 c-34 -14 -211 -28 -230 -18 -26 13 52 25 180 27 60 1 70 -1
50 -9z m4307 -31 c61 -87 65 -101 74 -277 8 -165 8 -165 49 -249 22 -46 40
-86 40 -90 0 -13 -42 34 -64 72 -29 51 -32 66 -50 250 -14 143 -17 154 -56
227 -39 76 -49 109 -32 109 5 0 22 -19 39 -42z m-3114 8 c132 -20 276 -50 360
-77 103 -33 279 -124 363 -187 132 -100 374 -363 374 -407 0 -23 -267 -255
-294 -255 -10 0 -70 51 -134 113 -165 158 -310 249 -494 310 -241 81 -556 77
-784 -9 -177 -66 -280 -132 -423 -269 -183 -175 -250 -272 -327 -472 -75 -193
-88 -253 -107 -497 l-12 -150 -105 -18 c-58 -11 -115 -25 -127 -33 -31 -20
-43 -74 -43 -187 0 -173 -20 -124 -62 152 -8 52 -13 179 -13 325 0 275 13 359
86 571 106 309 247 533 475 754 233 226 401 334 548 350 114 14 596 4 719 -14z
m2572 -1 c-75 -61 -464 -262 -489 -252 -29 11 -19 45 17 55 56 17 457 199 474
216 4 3 11 6 17 6 6 -1 -2 -12 -19 -25z m303 -31 c-6 -31 -23 -18 -26 21 -3
39 -3 40 13 17 9 -12 15 -29 13 -38z m204 -69 c16 -31 23 -70 30 -170 13 -192
21 -230 77 -354 28 -62 51 -117 51 -122 0 -44 -77 80 -111 179 -13 37 -25 119
-35 236 -15 183 -22 212 -68 284 -14 23 -26 45 -26 49 1 14 61 -61 82 -102z
m4951 -13 c37 -55 184 -281 326 -503 143 -222 281 -437 308 -478 125 -191 243
-397 241 -421 -3 -28 -67 -77 -114 -86 -49 -9 -87 33 -229 258 -71 112 -196
307 -279 433 -282 435 -486 761 -486 780 0 13 150 126 160 120 3 -2 37 -49 73
-103z m-5050 36 c40 -59 51 -105 67 -285 12 -131 32 -201 99 -347 l48 -107
-31 -72 c-17 -40 -35 -78 -40 -85 -12 -19 -41 -29 -231 -79 -93 -24 -215 -57
-270 -73 -172 -50 -346 -92 -361 -86 -18 7 -33 38 -189 399 -160 371 -160 323
5 422 58 34 199 119 313 188 115 70 218 127 228 127 11 0 34 -7 52 -17 37 -19
172 -22 205 -4 11 6 23 24 27 41 10 46 37 38 78 -22z m2477 48 c0 -2 -9 -23
-20 -47 -20 -44 -20 -44 -20 -12 0 41 9 63 26 63 8 0 14 -2 14 -4z m-1782 -39
c-35 -29 -221 -127 -239 -127 -19 0 18 25 146 97 106 60 148 74 93 30z m1960
-19 c121 -54 237 -117 229 -124 -13 -14 -307 124 -347 162 -23 22 -6 17 118
-38z m-7242 -25 c-34 -95 -66 -206 -95 -334 -45 -192 -53 -207 -152 -268 -68
-42 -119 -63 -119 -48 0 3 57 266 104 482 29 137 38 163 61 182 33 29 75 31
75 3 0 -24 -43 -227 -70 -330 -10 -41 -17 -76 -15 -78 7 -7 25 9 25 23 0 18
70 227 106 315 46 113 119 162 80 53z m10647 47 c76 -12 175 -32 220 -47 349
-110 651 -368 845 -723 90 -165 175 -432 202 -637 20 -144 8 -411 -24 -545
-33 -142 -98 -336 -142 -423 -150 -297 -414 -564 -687 -694 -227 -108 -569
-154 -797 -106 -166 34 -388 126 -538 221 -273 174 -518 513 -622 862 -58 196
-86 471 -69 685 24 299 182 682 374 905 39 44 55 51 74 28 9 -11 -7 -41 -75
-142 -47 -70 -105 -167 -129 -214 -128 -254 -189 -569 -166 -845 21 -242 68
-410 172 -619 88 -176 139 -248 268 -376 194 -193 414 -325 636 -381 115 -30
422 -38 554 -15 233 41 488 181 668 369 241 251 393 570 424 891 51 522 -100
990 -433 1341 -114 121 -220 197 -388 279 -215 105 -243 111 -545 111 -281 -1
-327 -9 -487 -81 -90 -41 -125 -45 -145 -18 -19 26 -17 30 30 44 23 7 80 29
127 50 47 20 121 44 165 54 261 53 291 55 488 26z m-1373 -82 c0 -5 -31 -41
-68 -81 -134 -142 -240 -302 -347 -522 -94 -195 -121 -283 -179 -590 -40 -214
-56 -257 -105 -291 -34 -23 -36 -24 -39 -5 -6 34 28 262 53 361 134 528 296
842 593 1152 l45 47 24 -31 c13 -18 23 -36 23 -40z m-3951 36 c-7 -9 -39 -29
-70 -45 -32 -16 -79 -42 -105 -59 -44 -27 -112 -43 -88 -21 12 13 256 141 268
141 5 0 3 -7 -5 -16z m1906 -35 c99 -43 217 -108 198 -109 -35 -1 -324 128
-338 150 -12 19 33 6 140 -41z m616 -129 c31 -212 31 -418 1 -550 -52 -223
-104 -342 -173 -391 l-31 -22 6 39 c3 21 10 82 16 134 6 52 27 187 45 300 19
113 48 300 65 415 31 209 37 242 45 234 2 -2 14 -74 26 -159z m-3851 115 c-7
-8 -17 -15 -22 -15 -6 0 -5 7 2 15 7 8 17 15 22 15 6 0 5 -7 -2 -15z m1358 3
c-5 -15 -236 -148 -257 -148 -27 0 8 26 129 95 117 67 135 74 128 53z m1857
-47 c72 -33 147 -66 168 -75 38 -16 50 -36 20 -36 -23 0 -318 144 -327 159
-12 19 5 13 139 -48z m3520 15 c39 -9 120 -32 180 -52 282 -93 603 -401 752
-722 43 -91 107 -284 128 -382 34 -157 29 -516 -10 -684 -81 -347 -315 -694
-597 -882 -100 -67 -264 -141 -375 -171 -83 -22 -126 -26 -283 -30 -201 -5
-252 2 -422 63 -447 161 -786 553 -908 1049 -43 173 -52 287 -40 472 6 84 17
186 24 226 21 104 79 265 141 392 54 109 179 295 204 303 17 6 -5 -35 -83
-156 -132 -201 -214 -403 -241 -594 -22 -157 -20 -413 6 -544 61 -315 196
-581 399 -784 220 -219 380 -307 689 -375 112 -25 136 -27 255 -22 228 10 471
93 651 222 88 63 250 219 269 259 9 19 21 38 27 42 18 10 107 152 140 221 37
77 89 227 120 348 22 82 24 110 23 305 -1 248 -14 349 -70 516 -49 148 -91
237 -167 352 -165 252 -318 392 -541 498 -211 100 -365 131 -589 120 -118 -6
-155 -13 -265 -46 -70 -21 -153 -47 -186 -59 -69 -26 -85 -21 -28 8 47 24 288
108 347 121 60 14 368 4 450 -14z m-6826 -25 c-41 -31 -189 -114 -195 -108 -7
7 186 127 205 127 8 0 4 -8 -10 -19z m3323 -70 c80 -38 149 -74 153 -81 5 -9
1 -10 -15 -5 -41 13 -330 154 -330 160 0 13 48 -5 192 -74z m-1872 54 c-18
-22 -161 -103 -195 -110 l-30 -7 25 21 c26 22 189 110 204 111 5 0 3 -7 -4
-15z m5114 -1 c9 -3 16 -16 16 -27 0 -45 -128 -439 -158 -484 -19 -31 -40 -29
-48 3 -17 68 35 415 70 469 10 15 31 27 58 33 24 6 44 10 45 11 1 1 8 -2 17
-5z m208 -24 c40 -17 46 -25 52 -57 9 -55 7 -456 -2 -470 -6 -10 -29 -8 -102
7 -52 11 -124 20 -160 20 -93 0 -96 4 -72 81 51 162 133 374 157 405 31 40 61
44 127 14z m-7058 -43 c13 -49 -7 -74 -25 -33 -8 17 -23 29 -41 33 -34 7 -36
16 -5 31 40 20 61 10 71 -31z m1766 25 c0 -10 -147 -98 -180 -108 -23 -6 -24
-5 -11 10 8 10 40 30 70 46 31 16 65 35 76 44 22 17 45 21 45 8z m1795 -53
c113 -55 169 -88 163 -95 -11 -10 -308 132 -308 147 0 15 31 4 145 -52z m3064
54 l24 -6 -6 -131 c-8 -199 -20 -210 -66 -58 -44 146 -46 157 -22 181 22 22
32 24 70 14z m644 -53 c29 -32 33 -59 17 -125 -6 -22 -19 -93 -29 -158 -20
-120 -37 -161 -85 -206 l-26 -24 0 270 c0 148 3 273 8 277 16 17 87 -4 115
-34z m-5493 -7 c0 -7 -96 -61 -125 -71 -19 -7 50 48 80 63 34 16 45 18 45 8z
m1711 -24 c23 -11 39 -22 36 -25 -5 -5 -97 33 -97 41 0 10 21 5 61 -16z m2999
11 c13 -7 34 -56 66 -153 46 -142 69 -267 45 -253 -6 4 -45 59 -86 122 -41 63
-104 144 -140 181 -35 37 -61 71 -57 75 29 29 138 46 172 28z m950 -39 c42
-31 36 -51 -47 -162 -43 -57 -81 -108 -85 -114 -14 -19 -16 1 -7 55 21 123 42
235 47 244 7 12 63 -1 92 -23z m-5650 -11 c0 -5 -2 -10 -4 -10 -2 0 -29 -11
-60 -25 -67 -30 -66 -16 2 20 53 27 62 29 62 15z m1755 -39 c45 -21 85 -43 89
-50 7 -10 -103 36 -169 72 -59 32 -1 16 80 -22z m93 13 c42 -27 16 -26 -35 1
-39 21 -42 25 -18 20 17 -4 41 -13 53 -21z m-1798 -8 c0 -14 -66 -58 -107 -70
-45 -14 -22 13 40 48 72 41 67 40 67 22z m1698 -58 c77 -39 109 -67 60 -53
-42 12 -183 82 -208 103 l-25 22 45 -15 c25 -9 82 -34 128 -57z m4060 -11 c28
-29 32 -38 23 -54 -10 -21 -143 -150 -279 -272 l-82 -73 0 43 c1 79 50 162
193 322 87 96 86 96 145 34z m-3824 21 c11 -42 6 -163 -9 -222 -31 -120 -479
-1012 -694 -1381 -29 -50 -78 -112 -131 -166 -82 -82 -88 -86 -155 -102 -175
-40 -680 -112 -900 -127 -88 -6 -198 -15 -245 -20 -141 -16 -1711 -33 -2042
-24 -349 11 -331 4 -336 117 -2 39 1 84 7 99 9 23 17 27 68 33 32 4 147 24
257 46 247 49 480 86 656 104 227 25 726 37 1289 32 570 -4 628 -9 767 -58
119 -42 313 -33 459 22 90 34 128 87 342 475 236 429 361 667 469 893 77 160
163 301 183 301 5 0 11 -10 15 -22z m-2116 -42 c74 -82 221 -316 222 -353 0
-19 -160 -17 -204 1 -34 14 -60 52 -141 204 l-28 52 24 52 c26 56 56 98 69 98
4 0 30 -24 58 -54z m1791 10 c112 -49 151 -71 151 -87 0 -15 -31 -4 -145 53
-95 47 -142 78 -118 78 6 0 56 -20 112 -44z m-1579 24 c0 -10 -98 -70 -115
-70 -17 0 29 39 70 59 48 24 45 23 45 11z m-3928 -10 c252 -24 509 -158 716
-374 82 -85 95 -113 67 -136 -12 -10 -37 8 -148 111 -167 156 -275 221 -497
300 -61 22 -80 24 -295 23 -227 0 -231 0 -310 -28 -219 -78 -399 -205 -561
-394 -80 -94 -144 -217 -199 -385 -51 -158 -75 -287 -75 -414 0 -97 -3 -103
-44 -87 -13 5 -16 25 -16 111 0 352 133 683 369 923 101 102 199 173 331 240
214 108 385 136 662 110z m8459 -29 c32 -33 37 -58 12 -68 -20 -8 -73 48 -73
77 0 29 27 25 61 -9z m-6508 -10 c35 -42 268 -584 302 -704 19 -70 36 -260 23
-268 -6 -4 -34 -15 -64 -25 -40 -14 -57 -15 -65 -7 -7 7 -16 58 -21 115 -19
225 -51 332 -175 578 -51 102 -93 198 -93 213 0 44 39 127 60 127 5 0 19 -13
33 -29z m3520 -31 c45 -27 48 -42 6 -30 -40 12 -119 58 -119 70 0 12 64 -11
113 -40z m-1498 30 c-11 -17 -128 -73 -123 -58 3 7 28 25 57 40 56 29 76 35
66 18z m1485 -88 c96 -40 153 -72 146 -80 -11 -10 -276 108 -276 124 0 8 35
-4 130 -44z m4334 -2 c25 -27 46 -59 46 -70 0 -12 -19 -51 -43 -88 -24 -37
-54 -85 -67 -107 -75 -127 -172 -264 -183 -259 -6 2 -28 28 -47 56 -19 29 -61
82 -93 119 l-57 67 82 75 c94 86 300 256 309 257 4 0 27 -22 53 -50z m-5834
30 c0 -11 -59 -44 -66 -37 -3 2 10 14 28 26 38 24 38 24 38 11z m1284 -12 c-3
-13 -23 -57 -44 -98 -20 -41 -52 -110 -70 -152 -30 -71 -32 -81 -22 -116 13
-42 66 -122 82 -122 5 0 22 18 36 40 15 22 30 40 35 40 9 0 -10 -67 -32 -113
-17 -38 -36 -34 -181 39 -135 67 -158 84 -168 126 -4 18 -9 40 -11 48 -3 12
11 16 69 20 63 4 76 8 92 30 11 14 20 29 20 34 0 19 83 180 87 169 2 -6 -17
-62 -42 -124 -25 -61 -44 -114 -41 -116 11 -12 28 16 100 162 42 85 81 155 87
155 6 0 8 -9 3 -22z m-3426 -30 c-3 -43 -3 -43 -43 -44 -46 0 -54 -12 -80
-106 -9 -32 -20 -58 -24 -58 -14 0 -102 102 -98 113 5 15 209 137 230 137 15
0 18 -7 15 -42z m1612 14 c0 -10 -13 -43 -29 -73 -28 -54 -127 -329 -175 -489
-32 -107 -72 -171 -128 -204 -44 -25 -575 -270 -773 -356 -60 -26 -195 -87
-300 -135 -222 -102 -333 -141 -430 -149 -158 -15 -390 -49 -556 -81 -383 -76
-771 -119 -1384 -155 -99 -5 -254 -14 -345 -20 -91 -5 -341 -13 -556 -16 -378
-7 -391 -7 -399 12 -13 32 -19 268 -7 291 13 24 61 35 292 63 391 47 843 87
1420 126 286 19 828 15 940 -8 42 -8 142 -13 285 -13 350 1 333 -4 1245 395
223 97 426 185 453 195 107 40 185 140 284 362 70 158 110 241 125 261 15 18
38 15 38 -6z m2183 -4 c38 -13 45 -22 27 -33 -13 -8 -100 31 -100 46 0 6 8 9
18 6 9 -4 34 -12 55 -19z m-1586 -6 c-20 -22 -106 -66 -114 -59 -7 7 97 76
116 76 11 1 11 -3 -2 -17z m196 -167 c82 -163 106 -184 72 -63 -19 68 -14 85
10 37 21 -40 56 -139 49 -139 -3 0 -2 -5 1 -10 11 -18 45 9 45 35 0 44 45 25
50 -20 4 -40 -1 -54 -22 -61 -13 -4 -67 -31 -121 -61 -53 -30 -103 -53 -110
-50 -16 6 -82 116 -74 123 3 3 24 -5 47 -17 l42 -24 25 29 c35 41 28 70 -57
244 -38 79 -70 149 -70 154 0 30 41 -34 113 -177z m1227 121 c102 -46 137 -66
112 -66 -16 0 -213 91 -243 113 l-24 17 25 -9 c14 -5 72 -30 130 -55z m3117
-5 c25 -36 43 -74 43 -90 0 -16 10 -37 25 -51 24 -23 35 -70 15 -70 -11 0
-110 138 -110 152 0 6 -9 21 -20 35 -22 29 -28 97 -8 91 7 -3 32 -33 55 -67z
m-8402 -16 c103 -36 205 -87 280 -140 61 -43 198 -180 231 -230 18 -28 18 -28
-6 -44 -14 -9 -44 -31 -67 -48 -24 -18 -45 -33 -48 -33 -3 0 -5 15 -5 33 0 76
-68 103 -130 51 l-31 -27 -42 32 c-81 60 -177 113 -254 139 -73 25 -90 27
-248 26 -151 0 -177 -3 -235 -23 -312 -109 -543 -430 -566 -785 l-7 -104 -30
-6 c-16 -3 -50 -6 -74 -6 l-45 0 4 163 c5 138 9 175 32 252 69 229 192 418
361 554 110 88 202 139 339 188 l121 42 170 -3 c156 -2 177 -5 250 -31z m3895
27 c0 -12 -98 -64 -112 -60 -6 2 13 18 43 36 57 33 69 37 69 24z m180 -11 c19
-36 30 -71 22 -71 -8 0 -52 71 -52 84 0 14 20 5 30 -13z m1086 5 c10 -8 16
-17 13 -20 -3 -4 -17 2 -30 13 -27 23 -13 28 17 7z m2711 -21 c22 -34 50 -122
41 -130 -3 -3 -33 1 -68 8 -87 17 -94 32 -46 101 21 31 41 56 45 56 3 0 16
-16 28 -35z m-3705 -27 c-6 -6 -16 -7 -22 -3 -9 6 -9 9 1 16 17 10 34 0 21
-13z m713 11 c4 -6 5 -12 2 -15 -7 -7 -37 7 -37 17 0 13 27 11 35 -2z m-950
-9 c-8 -13 -126 -73 -132 -67 -2 3 22 21 54 41 57 35 90 46 78 26z m1365 -15
c66 -26 88 -40 78 -51 -7 -6 -158 61 -158 70 0 10 15 7 80 -19z m2724 3 c21
-29 20 -92 0 -112 -8 -9 -17 -16 -19 -16 -2 0 -11 7 -19 16 -18 17 -21 70 -6
108 12 32 24 33 44 4z m-6939 -33 c43 -72 39 -77 -140 -188 -88 -54 -230 -144
-315 -201 -273 -182 -682 -434 -830 -512 -89 -47 -73 -99 18 -55 l45 22 30
-29 29 -29 -57 -8 c-77 -9 -152 2 -203 32 -44 26 -68 27 -157 7 -30 -7 -30 -7
-11 14 32 37 100 62 192 73 108 12 102 8 504 272 168 109 321 209 340 222 20
12 85 67 145 121 204 186 349 304 372 304 7 0 24 -20 38 -45z m579 -14 c45
-61 95 -164 140 -285 40 -105 59 -218 71 -422 l6 -111 -52 -23 c-86 -36 -128
-49 -133 -41 -3 5 -10 79 -16 167 -13 197 -28 270 -90 439 l-50 134 19 73 c38
145 46 151 105 69z m2616 49 c0 -12 -89 -64 -96 -57 -9 9 6 27 40 48 34 21 56
24 56 9z m558 -16 c13 -9 21 -18 18 -21 -8 -9 -96 27 -96 39 0 13 47 2 78 -18z
m337 7 c27 -13 33 -20 20 -20 -11 0 -36 8 -55 19 -45 25 -17 25 35 1z m-407
-38 c70 -34 101 -63 45 -42 -67 25 -163 73 -163 81 0 13 33 2 118 -39z m5001
-7 c44 -56 48 -81 21 -133 -28 -52 -161 -182 -212 -206 -34 -16 -118 -24 -118
-11 0 11 212 358 233 381 23 26 34 22 76 -31z m-8383 20 c11 -8 33 -33 49 -55
26 -39 27 -42 11 -59 -21 -24 -21 -23 15 -63 75 -83 128 -245 150 -456 13
-130 7 -193 -16 -193 -11 0 -15 12 -15 39 0 59 -15 65 -92 35 -61 -23 -66 -28
-71 -60 -3 -19 -16 -52 -29 -72 l-23 -37 -2 45 c-11 185 -57 438 -114 617 -21
68 -39 132 -39 142 0 19 46 66 105 105 46 30 45 30 71 12z m2569 -5 c-9 -15
-86 -54 -92 -47 -3 3 16 19 43 35 46 30 63 34 49 12z m405 15 c0 -7 -63 -43
-87 -51 -40 -12 -25 15 20 35 40 19 67 25 67 16z m184 -4 c8 -13 -9 -65 -22
-70 -13 -4 -18 59 -5 71 9 9 21 9 27 -1z m581 -3 c4 -6 5 -13 2 -16 -8 -7 -47
7 -47 18 0 13 37 11 45 -2z m-1773 -112 c98 -139 154 -204 191 -224 60 -31
182 -64 258 -70 63 -5 83 -2 123 16 27 11 50 21 52 21 11 0 1 -39 -17 -69 -17
-28 -24 -32 -47 -27 -15 3 -76 13 -137 21 -163 24 -240 53 -293 112 -53 58
-136 176 -185 261 -66 114 -41 95 55 -41z m1062 82 c-8 -13 -115 -62 -121 -55
-5 5 19 19 77 47 42 21 53 23 44 8z m286 -15 c30 -15 49 -29 42 -31 -17 -7
-97 24 -112 43 -19 22 7 18 70 -12z m4218 2 c29 -8 65 -23 79 -33 41 -29 46
-31 76 -38 43 -9 34 -40 -33 -108 -56 -59 -60 -61 -82 -47 -71 45 -92 50 -192
50 -127 0 -136 6 -136 101 0 98 8 103 135 96 55 -4 124 -13 153 -21z m-3677
-12 c67 -27 87 -40 77 -49 -3 -4 -41 12 -84 34 -90 46 -87 53 7 15z m-1251 7
c0 -10 -71 -58 -105 -71 -55 -21 -17 24 50 58 45 24 55 26 55 13z m1196 -33
c52 -23 94 -46 94 -51 0 -4 -10 -5 -22 -1 -38 11 -188 82 -188 88 0 12 25 5
116 -36z m3383 16 c3 -16 1 -17 -13 -5 -19 16 -21 34 -3 29 6 -3 14 -13 16
-24z m-4349 7 c0 -6 -4 -13 -10 -16 -5 -3 -10 1 -10 9 0 9 5 16 10 16 6 0 10
-4 10 -9z m250 0 c0 -14 -18 -23 -30 -16 -6 4 -8 11 -5 16 8 12 35 12 35 0z
m-5441 -102 c-124 -133 -172 -197 -215 -288 -78 -165 -118 -304 -134 -469 -17
-167 -20 -184 -33 -179 -30 10 -14 228 29 395 31 121 62 195 130 313 46 81 75
117 174 213 66 64 125 116 131 116 6 0 -31 -45 -82 -101z m10101 81 c0 -5 -4
-10 -10 -10 -5 0 -10 5 -10 10 0 6 5 10 10 10 6 0 10 -4 10 -10z m-3972 -52
c87 -43 116 -66 66 -54 -46 12 -204 88 -204 99 0 15 47 -1 138 -45z m149 -130
c-46 -84 -112 -206 -147 -270 -35 -65 -67 -118 -71 -118 -5 0 -9 32 -9 70 0
75 12 108 60 170 15 19 50 68 78 108 65 97 165 217 170 204 2 -6 -35 -79 -81
-164z m2648 143 c26 -12 59 -21 74 -21 14 0 33 -5 41 -10 13 -8 12 -14 -5 -46
-29 -54 -55 -67 -117 -59 -29 3 -75 12 -103 20 -27 8 -69 16 -93 19 -23 2 -49
10 -57 16 -22 18 -18 67 6 91 20 20 29 21 115 16 62 -3 108 -12 139 -26z
m-3935 14 c0 -7 -91 -65 -102 -65 -19 0 -5 17 34 43 39 25 68 34 68 22z m348
-32 c-3 -39 -24 -56 -34 -28 -7 18 14 65 28 65 5 0 8 -17 6 -37z m290 25 c-3
-7 -11 -13 -18 -13 -7 0 -15 6 -17 13 -3 7 4 12 17 12 13 0 20 -5 18 -12z
m-59 -32 c13 -13 33 -27 46 -30 30 -8 47 -52 43 -117 -4 -70 -20 -79 -155 -79
-129 0 -149 7 -163 60 -6 23 -13 47 -16 55 -8 19 34 54 78 66 21 5 38 13 38
17 0 5 9 18 20 30 29 30 80 29 109 -2z m-3442 2 c24 -32 83 -204 107 -314 28
-130 46 -352 38 -485 l-4 -77 -37 -6 c-20 -3 -93 -6 -163 -6 -147 0 -132 -12
-143 120 -12 148 -82 405 -140 521 l-24 46 22 21 c32 29 128 88 232 144 101
53 99 53 112 36z m2332 -255 c50 -34 147 -62 287 -84 135 -20 194 -35 194 -49
0 -4 -7 -13 -15 -20 -11 -9 -26 -9 -67 0 -29 7 -134 14 -233 16 -157 3 -182 6
-194 21 -19 25 -181 359 -181 374 0 6 40 -44 88 -112 49 -68 103 -134 121
-146z m956 257 c-3 -5 -10 -10 -16 -10 -5 0 -9 5 -9 10 0 6 7 10 16 10 8 0 12
-4 9 -10z m4105 -26 c0 -24 -4 -34 -12 -32 -24 8 -22 68 2 68 5 0 10 -16 10
-36z m-5290 -46 c39 -86 46 -112 29 -106 -15 5 -64 97 -74 141 -13 51 15 29
45 -35z m579 37 c15 -7 36 -26 46 -41 l17 -27 -73 7 c-185 19 -273 45 -254 76
11 18 226 5 264 -15z m191 6 c0 -10 -24 -21 -43 -21 -7 0 -3 7 7 15 22 17 36
19 36 6z m1067 -6 c20 -8 34 -18 30 -21 -3 -3 -22 4 -44 15 -45 24 -37 27 14
6z m3089 -45 c15 -22 24 -43 21 -46 -5 -6 -57 65 -57 78 0 16 11 7 36 -32z
m1044 -17 c29 -32 76 -101 106 -153 53 -93 54 -95 32 -103 -13 -5 -79 -9 -148
-10 l-125 -2 3 55 c4 64 14 80 51 80 60 0 69 55 16 96 -37 28 -42 43 -25 75
17 31 35 23 90 -38z m657 1 c15 -34 22 -59 16 -65 -13 -13 -151 -41 -187 -37
l-31 3 74 78 c41 42 81 77 88 77 8 0 26 -25 40 -56z m-10102 25 c42 -6 123
-28 181 -51 95 -37 113 -48 204 -130 56 -50 99 -96 97 -102 -2 -6 -71 -56
-155 -111 -284 -187 -313 -204 -361 -210 -151 -21 -262 -72 -327 -152 -23 -28
-43 -56 -45 -62 -5 -12 -255 -41 -360 -41 -65 0 -70 1 -79 26 -12 31 11 204
40 297 40 129 159 301 267 388 166 132 329 177 538 148z m5424 -30 c3 -11 -1
-10 -19 2 -13 9 -26 22 -29 30 -3 11 1 10 19 -2 13 -9 26 -22 29 -30z m3396
21 c7 -12 -12 -40 -26 -40 -10 0 -12 34 -2 43 9 10 21 9 28 -3z m-465 -24 c0
-24 -23 -41 -41 -30 -13 7 -11 28 3 42 20 20 38 14 38 -12z m920 -156 c-11
-52 -23 -97 -28 -102 -4 -4 -46 -10 -93 -14 -88 -7 -129 3 -129 30 0 7 54 59
120 116 67 56 126 110 133 121 21 35 20 -48 -3 -151z m-1227 135 c145 -21 147
-22 147 -48 0 -25 -43 -121 -58 -131 -17 -10 -176 126 -202 173 -13 25 -18 25
113 6z m1058 -11 c18 -11 34 -25 37 -33 4 -12 -13 -13 -98 -7 -107 7 -140 17
-140 41 0 21 19 25 96 21 48 -2 83 -9 105 -22z m-7033 -13 c3 -8 -1 -12 -9 -9
-7 2 -15 10 -17 17 -3 8 1 12 9 9 7 -2 15 -10 17 -17z m2061 -3 c13 -5 22 -11
19 -13 -6 -6 -149 23 -157 31 -8 8 109 -7 138 -18z m-949 -2 c0 -19 -39 -66
-55 -66 -19 0 -39 61 -23 72 22 13 78 9 78 -6z m229 -35 c13 -23 20 -45 16
-49 -10 -11 -65 56 -65 79 0 31 22 18 49 -30z m5436 23 c0 -10 -8 -20 -17 -22
-18 -3 -26 27 -11 42 12 11 28 0 28 -20z m-904 -80 c150 -139 164 -153 157
-160 -13 -13 -259 160 -277 195 -11 19 -4 61 9 61 4 0 54 -43 111 -96z m-3414
80 c-3 -3 -12 -4 -19 -1 -8 3 -5 6 6 6 11 1 17 -2 13 -5z m4851 -18 c3 -12 -1
-17 -10 -14 -7 3 -15 13 -16 22 -3 12 1 17 10 14 7 -3 15 -13 16 -22z m-1023
2 c15 -7 37 -32 50 -57 44 -88 87 -201 82 -216 -3 -8 -25 -19 -49 -25 -24 -6
-67 -18 -96 -26 -30 -9 -67 -13 -85 -10 -34 6 -107 60 -107 78 0 16 88 221
106 246 17 25 58 29 99 10z m-3010 -27 c-14 -29 -35 -49 -35 -36 0 13 34 65
42 65 5 0 2 -13 -7 -29z m-2341 10 c15 -24 -34 -52 -150 -85 -194 -55 -232
-62 -284 -45 -25 8 -44 19 -43 24 1 6 26 13 55 17 29 4 125 27 213 52 166 46
200 52 209 37z m1442 -37 c15 -36 16 -36 57 -30 23 4 49 6 57 5 47 -7 303 0
330 10 27 9 36 8 57 -9 36 -28 51 -25 89 15 l33 36 38 -24 c21 -13 52 -29 70
-36 34 -14 70 -47 60 -57 -3 -3 -17 2 -31 11 -24 16 -66 13 -66 -5 0 -5 -3
-15 -6 -24 -3 -9 5 -26 20 -41 21 -21 29 -23 52 -15 15 6 29 9 31 6 2 -2 7
-50 10 -107 l5 -104 -47 -90 c-62 -118 -65 -121 -98 -95 l-27 21 -25 -25 c-32
-32 -31 -41 5 -68 17 -12 30 -27 30 -33 0 -35 -153 -234 -211 -276 -34 -24
-197 -59 -275 -59 -58 0 -294 55 -317 74 -8 6 -17 26 -21 44 -5 28 -3 32 17
32 36 0 67 28 67 60 0 32 -9 40 -54 50 -29 5 -32 10 -43 70 -7 36 -12 86 -13
112 0 47 0 47 38 54 69 12 94 59 49 89 -19 12 -30 13 -56 4 -18 -6 -34 -9 -37
-7 -2 3 -7 72 -11 154 -6 148 -6 149 14 132 11 -10 25 -18 31 -18 15 0 32 33
32 63 0 34 32 71 82 96 24 11 44 21 46 21 2 0 10 -16 18 -36z m4048 -5 c19
-23 50 -70 68 -105 26 -51 31 -67 22 -81 -20 -33 -42 -27 -65 19 -95 184 -107
262 -25 167z m536 30 c27 -6 50 -14 50 -17 0 -9 -67 -62 -78 -62 -13 0 -62 72
-56 82 7 11 23 10 84 -3z m1132 -44 l22 -45 -22 -23 c-21 -21 -31 -22 -214
-25 l-192 -3 26 33 c14 18 36 41 50 51 25 19 191 54 266 56 41 1 43 -1 64 -44z
m-9603 2 c15 -46 5 -69 -28 -65 -56 7 -62 98 -6 98 18 0 26 -8 34 -33z m1541
2 c0 -10 -4 -19 -9 -19 -10 0 -21 36 -14 44 10 10 23 -5 23 -25z m6794 -16
c23 -43 25 -45 26 -20 0 38 16 34 30 -9 16 -47 2 -64 -34 -40 -24 15 -66 83
-66 106 0 24 22 6 44 -37z m-7889 -68 c47 -101 82 -218 105 -355 26 -146 24
-174 -9 -178 -29 -5 -41 12 -41 59 0 36 -40 245 -58 304 -5 17 -26 72 -46 122
-35 89 -43 132 -29 146 13 13 46 -29 78 -98z m2454 -99 l72 -154 -7 -66 c-4
-36 -10 -66 -14 -66 -3 0 -17 11 -29 24 -33 36 -53 111 -46 174 9 77 -7 92
-97 92 -38 0 -68 3 -66 8 8 18 57 149 63 166 5 18 6 18 29 -3 13 -12 56 -91
95 -175z m230 -73 c128 -249 150 -284 196 -313 24 -16 26 -20 10 -20 -11 0
-42 24 -70 53 -39 42 -73 99 -154 263 -56 115 -110 217 -118 226 -16 17 -8 47
8 31 5 -5 62 -113 128 -240z m6071 218 c-29 -55 -109 -78 -134 -39 -19 30 29
54 112 57 29 1 32 -1 22 -18z m-6743 -6 c-26 -19 -322 -145 -342 -145 -11 0
-15 7 -13 22 4 30 70 61 220 103 138 38 163 42 135 20z m4924 -65 c68 -44 127
-80 131 -80 13 0 9 -63 -5 -90 -15 -30 -78 -54 -125 -46 -37 6 -160 53 -181
69 -28 23 -31 55 -12 131 22 87 26 96 50 96 10 0 73 -36 142 -80z m-5821 30
c0 -16 -4 -30 -10 -30 -5 0 -10 14 -10 30 0 17 5 30 10 30 6 0 10 -13 10 -30z
m-1272 -15 c2 -11 17 -50 33 -86 64 -147 104 -377 69 -399 -8 -5 -45 -10 -82
-10 l-68 0 0 53 c0 81 -24 146 -75 206 -26 30 -45 63 -45 76 0 13 -5 36 -10
51 -9 24 -7 31 12 50 30 31 129 85 148 81 8 -1 16 -11 18 -22z m2692 -6 c0
-11 -4 -17 -10 -14 -5 3 -10 15 -10 26 0 11 5 17 10 14 6 -3 10 -15 10 -26z
m-987 -19 c29 -8 42 -20 52 -43 19 -47 5 -63 -92 -108 -105 -48 -133 -56 -133
-38 0 8 -3 32 -7 53 l-6 39 21 -21 c26 -26 40 -27 70 -6 25 17 31 71 10 92
-17 17 -53 15 -68 -3 -7 -8 -18 -15 -25 -15 -15 0 -29 46 -19 62 8 13 139 5
197 -12z m3141 -41 c9 -90 7 -174 -4 -204 -14 -36 -92 -117 -156 -161 -64 -44
-95 -100 -118 -213 -9 -41 -22 -81 -31 -91 -8 -9 -18 -30 -21 -47 -6 -29 -9
-31 -63 -36 -31 -2 -57 -4 -58 -3 -1 1 381 732 415 794 20 36 29 26 36 -39z
m-2184 -8 c-1 -10 -6 -7 -15 9 -19 33 -18 50 0 26 8 -11 15 -27 15 -35z m6698
-11 c18 -60 24 -124 13 -152 -6 -16 -27 -36 -51 -48 -44 -22 -427 -160 -446
-160 -7 0 -14 34 -18 96 -4 53 -13 130 -21 172 -15 87 -12 99 24 114 26 11
471 27 482 18 4 -3 11 -21 17 -40z m-604 24 c9 -3 16 -14 16 -23 -1 -17 -95
-130 -102 -121 -2 3 -13 27 -24 55 -14 36 -27 52 -47 59 -43 16 -52 -2 -55
-117 -2 -56 -7 -106 -12 -111 -11 -11 -77 29 -97 61 -33 50 -11 188 30 196 35
7 274 8 291 1z m-364 -56 c0 -81 -10 -86 -58 -27 -56 68 -55 79 8 79 l50 0 0
-52z m-6790 27 c10 -12 9 -16 -5 -21 -19 -8 -40 9 -31 25 10 15 21 14 36 -4z
m6626 -13 c21 -16 46 -37 54 -46 13 -16 12 -20 -5 -32 -30 -22 -43 -17 -80 34
-55 75 -41 96 31 44z m-5296 -6 c0 -16 -18 -31 -27 -22 -8 8 5 36 17 36 5 0
10 -6 10 -14z m-3145 -13 c13 -12 16 -27 12 -56 -7 -49 -10 -52 -58 -52 -65 0
-81 55 -28 99 36 30 51 32 74 9z m3365 11 c39 -8 62 -47 39 -68 -11 -11 -28
-12 -77 -5 -35 5 -68 11 -73 15 -10 6 -12 48 -2 57 8 9 71 9 113 1z m2200 -6
c0 -22 -47 -190 -70 -251 -59 -158 -358 -524 -578 -708 -95 -79 -228 -163
-244 -153 -4 3 -8 16 -8 29 0 54 -73 75 -117 33 -15 -14 -23 -17 -23 -8 0 32
78 91 340 258 36 23 86 63 112 89 94 97 342 402 454 561 109 152 134 180 134
150z m-2808 -86 c6 -107 26 -151 97 -210 47 -40 51 -46 51 -88 0 -32 -6 -49
-20 -61 -25 -22 -25 -60 0 -98 11 -16 20 -38 20 -47 0 -9 11 -30 25 -47 l26
-30 -33 -6 c-18 -3 -76 -5 -128 -3 -52 2 -210 -1 -351 -6 l-256 -8 -11 43
c-11 44 -25 208 -23 262 5 102 107 200 278 267 43 17 103 48 133 69 62 43 76
48 141 50 l46 1 5 -88z m273 -55 c53 -121 66 -163 46 -142 -10 11 -121 269
-121 281 0 23 26 -26 75 -139z m175 122 c0 -5 -4 -9 -10 -9 -5 0 -10 7 -10 16
0 8 5 12 10 9 6 -3 10 -10 10 -16z m5822 -129 c5 -66 7 -136 4 -155 -13 -68
-83 -83 -141 -29 -25 23 -26 29 -20 72 11 77 42 151 86 209 52 70 56 64 71
-97z m-1005 115 c6 -18 -23 -44 -49 -45 -18 0 -23 16 -12 44 8 21 53 21 61 1z
m804 -31 c19 -42 19 -47 5 -70 -27 -40 -36 -28 -36 46 0 39 3 70 6 70 3 0 14
-21 25 -46z m-7334 -26 c-2 -13 -4 -5 -4 17 -1 22 1 32 4 23 2 -10 2 -28 0
-40z m6034 37 c0 -5 -9 -11 -21 -13 -20 -3 -27 8 -13 22 10 9 34 3 34 -9z
m-4011 -10 c0 -19 -11 -19 -36 0 -18 14 -18 14 9 15 17 0 27 -5 27 -15z m4380
9 c0 -18 -26 -47 -60 -69 -53 -34 -97 -32 -140 4 l-34 28 49 16 c28 9 59 18
70 20 30 7 115 8 115 1z m-4930 -68 c5 -14 6 -26 2 -26 -9 0 -42 65 -42 83 0
15 27 -23 40 -57z m-3112 25 c3 -8 -1 -12 -9 -9 -7 2 -15 10 -17 17 -3 8 1 12
9 9 7 -2 15 -10 17 -17z m7328 -19 c14 -8 11 -11 -19 -21 -40 -13 -77 -2 -77
24 0 25 48 24 96 -3z m475 -18 c21 -15 36 -30 34 -34 -7 -11 -94 -40 -121 -40
-27 0 -66 46 -62 74 7 50 77 50 149 0z m-4394 16 c190 -25 289 -43 295 -53 4
-7 8 -33 8 -58 0 -59 -16 -74 -67 -63 -50 10 -63 7 -90 -22 -25 -28 -49 -30
-98 -10 -70 30 -144 118 -170 205 -7 22 -5 23 18 17 14 -3 61 -11 104 -16z
m4805 -25 c-3 -26 4 -47 28 -87 58 -94 132 -188 160 -203 26 -13 30 -12 69 15
22 17 54 30 69 30 35 0 50 12 96 73 40 54 43 74 20 118 -14 29 -14 32 3 45 51
38 79 -17 71 -142 -11 -170 -131 -299 -278 -298 -96 1 -199 75 -251 179 -21
43 -24 64 -24 150 0 94 13 155 33 155 4 0 6 -16 4 -35z m-8236 -10 c52 -52 99
-190 72 -213 -30 -24 -55 -2 -88 76 -39 93 -50 162 -26 162 10 0 28 -11 42
-25z m7623 -1 c20 -25 28 -54 16 -54 -12 0 -84 40 -90 50 -10 16 4 30 30 30
14 0 32 -11 44 -26z m1010 -33 c27 -64 27 -75 -1 -66 -13 4 -38 9 -55 12 -36
6 -41 14 -19 32 8 6 19 25 26 41 7 17 16 30 20 30 4 0 17 -22 29 -49z m-8541
20 c3 -8 -1 -12 -9 -9 -7 2 -15 10 -17 17 -3 8 1 12 9 9 7 -2 15 -10 17 -17z
m8002 7 c0 -20 -38 -78 -51 -78 -7 0 -9 10 -4 28 11 43 55 83 55 50z m-8202
-15 c5 -10 22 -54 37 -97 l27 -79 -21 -20 c-17 -18 -33 -21 -116 -21 l-97 -1
-29 33 c-46 51 -40 62 72 136 56 36 105 66 110 66 5 0 12 -8 17 -17z m345 -1
c43 -48 67 -173 37 -192 -20 -13 -67 -13 -91 0 -25 14 -46 55 -54 111 -6 43
-5 47 25 72 37 31 61 34 83 9z m7291 -19 c72 -31 90 -44 79 -53 -20 -19 -282
-90 -331 -90 -33 0 -48 39 -34 88 13 43 35 58 114 78 64 16 92 12 172 -23z
m-6244 -3 c0 -21 9 -38 30 -57 55 -49 35 -72 -79 -93 -34 -6 -66 -8 -71 -5
-20 12 -9 41 27 72 35 29 37 33 25 53 -7 12 -12 23 -10 25 8 7 64 34 71 35 4
0 7 -13 7 -30z m4095 9 c11 -35 -5 -171 -25 -214 -11 -22 -34 -57 -52 -79 -31
-38 -32 -38 -40 -16 -13 36 1 110 32 165 16 28 31 73 35 100 4 28 9 53 12 58
9 15 32 6 38 -14z m3471 -23 c37 -37 42 -57 19 -76 -18 -15 -34 -5 -50 34 -35
86 -26 99 31 42z m170 2 c-3 -13 -6 -30 -6 -39 0 -23 -24 -30 -46 -15 -16 12
-16 15 5 45 27 37 56 43 47 9z m-3736 -8 c23 -23 26 -62 5 -80 -29 -24 -99 56
-74 86 16 20 46 17 69 -6z m2640 5 c0 -8 -9 -19 -21 -25 -26 -15 -132 -18
-139 -5 -6 11 91 43 133 44 17 1 27 -4 27 -14z m1852 -17 c5 -89 -5 -124 -42
-143 -34 -18 -240 -59 -283 -57 -36 2 -139 60 -134 76 5 14 158 74 307 120
146 44 150 45 152 4z m-5937 2 c-3 -5 -10 -10 -16 -10 -5 0 -9 5 -9 10 0 6 7
10 16 10 8 0 12 -4 9 -10z m4286 -8 c-5 -10 -17 -24 -25 -32 -14 -10 -16 -9
-16 7 0 22 18 43 37 43 10 0 11 -5 4 -18z m-5805 -29 c-4 -10 -18 -49 -32 -88
-14 -38 -38 -94 -52 -122 -30 -60 -27 -73 27 -110 l32 -21 -39 -41 c-21 -23
-46 -41 -55 -41 -21 0 -106 98 -113 130 -18 87 -60 126 -126 117 -49 -7 -69
-26 -92 -88 -19 -54 -42 -87 -51 -77 -4 4 -10 38 -12 75 l-5 68 133 59 c379
168 398 175 385 139z m853 -102 c77 -178 109 -201 374 -276 79 -23 65 -39 -27
-31 -101 10 -210 37 -256 65 -38 22 -100 83 -115 112 -8 14 -19 57 -25 95 -6
38 -16 84 -21 101 -12 39 -3 62 17 41 7 -7 31 -55 53 -107z m5309 64 c-3 -25
-13 -56 -22 -71 -20 -30 -31 -24 -78 40 -36 51 -35 56 7 43 32 -9 38 -8 58 11
32 33 40 27 35 -23z m-784 -32 c19 -90 41 -232 35 -238 -8 -7 -255 -25 -351
-25 l-89 0 -15 36 c-22 54 -22 109 1 135 24 27 115 69 255 120 147 53 145 53
164 -28z m306 53 c0 -18 -39 -66 -53 -66 -7 0 -34 11 -62 24 l-50 23 45 12
c25 7 50 14 55 16 26 9 65 4 65 -9z m588 -7 c-4 -11 -79 -41 -86 -34 -2 2 6
13 17 24 22 22 75 29 69 10z m-518 -23 c0 -21 -41 -77 -53 -73 -19 6 -19 30 3
64 19 31 50 37 50 9z m900 -2 c0 -8 -4 -14 -10 -14 -5 0 -10 9 -10 21 0 11 5
17 10 14 6 -3 10 -13 10 -21z m-5635 -80 c25 -25 47 -35 125 -53 52 -12 122
-24 155 -27 142 -12 154 -22 58 -44 -126 -29 -208 -13 -301 58 -35 27 -112
128 -111 146 0 6 10 -2 22 -19 12 -16 36 -44 52 -61z m4444 77 c12 -8 12 -13
-3 -36 -9 -14 -16 -38 -14 -53 2 -22 9 -28 35 -30 33 -3 63 25 63 60 0 23 12
23 41 -1 l23 -18 -36 -49 c-47 -63 -94 -108 -106 -100 -20 12 -61 204 -47 225
8 13 25 14 44 2z m1135 -26 c21 -21 35 -25 81 -25 41 0 55 -4 55 -14 0 -18
-78 -48 -127 -50 -35 -1 -39 1 -52 41 -12 34 -13 44 -2 57 17 20 16 21 45 -9z
m-5214 5 c12 0 23 -12 30 -35 14 -43 4 -61 -43 -70 -18 -4 -40 -9 -49 -11 -16
-5 -18 3 -18 62 l0 67 31 -7 c17 -3 40 -6 49 -6z m1475 -24 c13 -13 29 -43 35
-66 19 -70 -4 -135 -66 -190 -31 -27 -43 -31 -71 -27 -19 4 -51 18 -70 33 -32
24 -34 29 -28 68 11 62 43 143 72 176 33 39 92 42 128 6z m-4050 -23 c5 -19 2
-23 -14 -23 -21 0 -26 15 -15 45 8 19 19 10 29 -22z m7009 2 c11 -56 -5 -69
-44 -37 -22 18 -22 19 -5 45 24 37 41 34 49 -8z m-8779 -8 c24 -18 10 -26 -57
-33 l-53 -5 28 25 c31 29 54 32 82 13z m9953 -17 c28 -17 52 -34 52 -39 0 -14
-111 -23 -126 -10 -8 6 -14 15 -14 20 0 16 20 59 27 59 5 0 32 -14 61 -30z
m-464 4 c19 -48 -1 -76 -47 -66 -15 3 -17 9 -12 30 12 49 46 70 59 36z m346 1
c0 -8 -6 -15 -14 -15 -17 0 -28 14 -19 24 12 12 33 6 33 -9z m-1194 -19 c17
-43 -101 -163 -137 -140 -15 9 32 83 75 120 44 38 54 41 62 20z m1149 -20 c17
-13 27 -27 24 -31 -9 -8 -187 -45 -221 -45 -61 0 -13 51 78 84 57 21 85 19
119 -8z m613 -28 c3 -53 -20 -118 -42 -118 -12 0 -187 99 -205 116 -10 10 15
19 92 36 45 9 98 16 117 15 34 -2 35 -3 38 -49z m-1668 6 c73 -49 62 -81 -17
-52 -29 11 -35 10 -58 -12 -30 -28 -32 -13 -5 40 22 44 41 49 80 24z m-6086
-25 c14 -11 26 -30 26 -41 0 -12 16 -50 35 -85 19 -35 35 -68 35 -72 0 -16
-237 -37 -258 -23 -28 19 89 240 129 242 4 0 18 -9 33 -21z m3620 -34 c-19
-29 -54 -52 -54 -36 0 6 14 27 32 47 35 39 50 32 22 -11z m3869 14 c105 -46
210 -113 225 -142 15 -31 -1 -79 -37 -112 -22 -19 -22 -19 -66 4 -45 24 -289
214 -314 244 -11 14 -11 17 0 21 67 23 115 19 192 -15z m-6149 2 c4 -5 39 -22
79 -37 40 -16 64 -30 55 -32 -20 -4 -132 44 -149 64 -8 10 -8 14 -1 14 6 0 13
-4 16 -9z m5531 -1 c10 -16 -46 -33 -70 -22 -19 10 -19 10 5 20 33 14 57 14
65 2z m-6585 -16 c0 -8 -4 -12 -10 -9 -5 3 -10 10 -10 16 0 5 5 9 10 9 6 0 10
-7 10 -16z m6872 -13 c-4 -38 -116 -246 -132 -246 -19 0 -49 100 -52 177 l-3
62 70 18 c94 23 121 20 117 -11z m173 -52 c55 -45 141 -112 190 -149 50 -37
101 -79 114 -93 23 -25 23 -29 12 -69 -17 -57 -28 -68 -63 -68 -27 0 -274 78
-359 114 -20 8 -49 30 -64 48 -24 28 -27 39 -23 83 6 60 64 215 81 215 7 0 57
-37 112 -81z m-7641 65 c13 -5 16 -22 16 -80 0 -66 -3 -77 -27 -104 -37 -41
-120 -62 -248 -64 -89 -1 -105 2 -143 24 -24 14 -41 30 -40 39 2 8 42 28 93
46 50 18 110 42 135 54 64 29 70 28 70 -21 0 -72 46 -100 89 -54 28 30 30 79
5 107 -19 21 -18 21 5 40 26 22 24 21 45 13z m2060 -71 c1 -37 0 -38 -35 -41
-41 -3 -87 26 -74 47 12 20 89 51 99 41 5 -5 9 -26 10 -47z m4517 16 c16 -11
29 -26 29 -33 0 -17 -45 -40 -64 -33 -29 11 -34 87 -5 87 6 0 24 -9 40 -21z
m-139 -4 c0 -5 -5 -11 -11 -13 -6 -2 -11 4 -11 13 0 9 5 15 11 13 6 -2 11 -8
11 -13z m45 -47 c-3 -22 -4 -21 -11 4 -5 16 -5 36 0 45 7 16 8 15 11 -4 3 -13
3 -33 0 -45z m733 47 c0 -22 -114 -140 -128 -131 -13 8 -16 85 -6 124 6 20 12
22 70 22 50 0 64 -3 64 -15z m-920 -24 c5 -11 10 -33 10 -50 0 -33 -14 -44
-67 -54 -30 -6 -33 -4 -33 17 0 24 54 106 70 106 5 0 14 -9 20 -19z m84 -7
c20 -29 18 -59 -4 -59 -19 0 -42 48 -34 69 9 23 19 20 38 -10z m-4870 -15 c27
-16 46 -32 43 -35 -6 -7 -103 42 -112 56 -12 20 22 10 69 -21z m4696 16 c0 -8
-13 -29 -28 -46 l-28 -31 -16 23 c-8 13 -18 34 -22 47 -7 21 -5 22 43 22 38 0
51 -4 51 -15z m765 5 c8 -13 -2 -79 -15 -100 -7 -12 -13 -10 -34 10 -31 29
-32 40 -5 74 21 27 43 33 54 16z m75 -52 c0 -71 -9 -92 -36 -86 -23 5 -23 57
0 112 23 54 36 44 36 -26z m-7121 43 c8 -5 11 -16 8 -25 -5 -14 -11 -15 -27
-6 -21 11 -25 22 -13 33 8 9 15 9 32 -2z m6106 -28 c-36 -56 -87 -114 -113
-127 -37 -18 -191 -49 -227 -44 -59 6 -104 132 -57 157 29 15 210 36 341 39
l73 2 -17 -27z m820 7 c-3 -5 -10 -10 -16 -10 -5 0 -9 5 -9 10 0 6 7 10 16 10
8 0 12 -4 9 -10z m-111 -9 c8 -13 -21 -34 -39 -27 -20 7 -19 23 3 29 28 8 31
7 36 -2z m-624 -64 c0 -18 -35 -37 -92 -51 -40 -9 -36 12 14 69 l41 47 18 -24
c10 -12 19 -31 19 -41z m-4144 38 c10 -8 14 -15 7 -15 -19 0 -43 11 -43 21 0
13 14 11 36 -6z m1330 5 c48 -19 71 -73 41 -98 -10 -9 -22 0 -51 38 -21 28
-46 55 -55 60 -13 8 -11 9 11 10 15 0 39 -5 54 -10z m504 -14 c0 -28 -45 -86
-66 -86 -24 0 -15 28 22 70 20 22 38 40 40 40 2 0 4 -11 4 -24z m2844 3 c32
-25 33 -49 2 -78 l-24 -22 -41 20 c-60 31 -69 81 -16 94 39 9 53 7 79 -14z
m-6544 -14 c0 -14 -4 -25 -10 -25 -11 0 -14 33 -3 43 11 11 13 8 13 -18z
m7110 5 c0 -40 -28 -77 -70 -94 -67 -27 -69 -8 -4 54 66 64 74 68 74 40z
m-410 -8 c0 -10 -11 -29 -26 -42 -21 -21 -27 -22 -34 -10 -14 21 -12 28 10 50
25 25 50 26 50 2z m-3395 -2 c-3 -5 -10 -10 -16 -10 -5 0 -9 5 -9 10 0 6 7 10
16 10 8 0 12 -4 9 -10z m-3884 -45 c26 -25 55 -45 64 -45 8 0 15 -4 15 -9 0
-23 -377 -86 -457 -77 -46 5 -203 49 -226 63 -17 10 10 22 116 51 l108 29 16
-24 c17 -26 62 -53 89 -53 9 0 33 19 54 41 29 32 50 44 91 54 78 19 77 19 130
-30z m6899 22 c0 -21 -12 -28 -27 -16 -19 16 -16 29 7 29 11 0 20 -6 20 -13z
m-7151 -11 c9 -10 8 -16 -3 -25 -27 -23 -74 8 -49 32 11 12 40 8 52 -7z m7626
-3 c37 -18 46 -33 19 -33 -13 0 -15 -7 -10 -31 3 -17 6 -48 6 -67 l0 -36 28
27 c60 57 90 26 78 -80 -11 -94 -36 -117 -75 -67 -13 17 -21 41 -21 65 0 40
-7 48 -27 28 -8 -8 -24 7 -57 54 -25 35 -46 72 -46 82 0 15 51 75 64 75 3 0
21 -8 41 -17z m-3658 1 c30 -8 39 -41 17 -65 -9 -10 -38 -31 -63 -46 -25 -14
-66 -41 -90 -60 -52 -39 -78 -42 -87 -9 -13 54 39 155 90 176 25 10 102 12
133 4z m3082 -8 c51 -27 91 -82 91 -127 0 -43 -14 -79 -31 -79 -13 0 -211 181
-205 188 3 2 29 10 58 18 29 7 54 13 56 13 2 1 16 -6 31 -13z m965 -26 c17
-44 9 -86 -20 -97 -23 -9 -94 15 -94 33 0 15 77 104 90 104 4 0 15 -18 24 -40z
m-790 -31 c-9 -15 -23 -10 -34 11 -17 32 0 47 22 21 10 -13 15 -27 12 -32z
m236 10 c0 -10 -30 -55 -66 -101 -37 -45 -74 -95 -84 -111 -22 -35 -33 -22
-33 38 0 50 18 78 96 152 56 54 87 61 87 22z m-630 13 c0 -4 -28 -57 -63 -118
-111 -192 -168 -274 -189 -274 -14 0 -68 92 -68 117 0 12 32 69 70 126 74 110
82 116 190 146 45 12 60 13 60 3z m93 -41 c21 -27 71 -81 112 -120 41 -39 75
-75 75 -79 0 -18 -352 -343 -368 -340 -9 2 -38 30 -65 63 -38 48 -47 65 -42
85 11 44 231 439 245 440 3 0 23 -22 43 -49z m1217 27 c0 -16 -3 -19 -11 -11
-6 6 -8 16 -5 22 11 17 16 13 16 -11z m-855 -7 c-3 -6 -11 -11 -17 -11 -6 0
-6 6 2 15 14 17 26 13 15 -4z m-7752 -23 c26 -14 164 -64 227 -83 70 -20 130
-46 130 -56 0 -13 2 -13 -138 32 -140 46 -262 97 -262 110 0 12 17 11 43 -3z
m7067 -16 c0 -15 -122 -152 -135 -152 -13 0 -39 46 -50 91 -5 22 -2 28 22 37
70 28 163 41 163 24z m1559 -20 c28 -20 91 -128 91 -154 0 -15 -4 -16 -26 -8
-73 28 -123 84 -149 169 -7 23 -6 24 26 17 19 -3 45 -14 58 -24z m-659 11 c0
-4 -14 -22 -32 -40 -29 -30 -31 -34 -18 -59 21 -39 44 -47 86 -29 20 8 40 15
45 15 16 0 10 -97 -6 -110 -18 -15 -222 -7 -238 9 -12 12 13 57 83 145 54 68
80 90 80 69z m379 -24 c13 -11 30 -19 37 -19 19 0 26 -17 15 -38 -12 -23 -127
-86 -141 -77 -6 3 -10 37 -10 75 0 55 4 71 18 79 20 12 48 5 81 -20z m-3499 2
c0 -21 -38 -54 -52 -45 -10 6 29 64 43 64 5 0 9 -9 9 -19z m-5087 -2 c46 -24
117 -84 117 -99 0 -27 -86 -163 -154 -243 -130 -151 -240 -224 -444 -295
l-107 -37 -175 0 c-202 0 -256 12 -415 92 -181 91 -303 198 -435 383 l-60 85
37 7 c21 3 64 7 96 9 l57 2 71 -76 c115 -125 277 -219 438 -253 78 -16 236
-18 312 -4 30 6 106 35 169 66 102 50 124 66 205 148 50 50 110 119 133 153
26 38 50 63 64 66 43 8 69 7 91 -4z m7936 2 c11 -7 10 -14 -7 -38 -12 -17 -28
-36 -37 -43 -13 -11 -15 -7 -15 32 0 25 3 48 7 51 9 10 35 8 52 -2z m-8146
-11 c30 0 19 -26 -43 -104 -77 -97 -140 -146 -264 -206 -127 -62 -208 -83
-316 -83 -102 -1 -170 14 -266 58 -125 57 -294 189 -294 229 0 14 51 26 115
26 35 0 47 -6 80 -41 51 -52 109 -86 162 -95 54 -8 90 1 103 27 14 25 4 39
-64 85 l-49 33 34 5 c19 3 163 15 320 26 157 11 317 27 355 35 38 7 78 12 89
9 11 -2 28 -4 38 -4z m562 -55 c77 -29 157 -60 178 -69 61 -27 100 -76 60 -76
-10 0 -67 21 -128 45 -60 25 -137 55 -170 66 -65 22 -155 68 -155 79 0 30 35
23 215 -45z m4043 23 c-2 -25 -8 -34 -25 -36 -28 -4 -31 22 -6 50 24 27 35 22
31 -14z m4372 11 c7 -11 9 -24 5 -27 -7 -7 -35 25 -35 40 0 16 19 8 30 -13z
m358 -40 c86 -29 163 -56 170 -62 22 -17 13 -64 -21 -109 -18 -23 -41 -44 -51
-46 -25 -5 -97 24 -145 58 -55 41 -153 210 -121 210 6 0 82 -23 168 -51z
m-369 -23 l48 -25 67 -183 c96 -259 95 -253 62 -287 -42 -43 -121 -83 -159
-79 -28 3 -42 17 -115 113 -164 220 -200 284 -182 330 9 24 191 153 218 154 7
1 34 -10 61 -23z m-11059 -7 c19 -5 97 -9 172 -9 l137 0 47 -92 c76 -152 143
-245 266 -364 172 -166 362 -282 553 -335 72 -20 103 -23 315 -23 l235 -1 106
36 c126 43 247 107 356 188 108 80 215 182 252 239 17 26 35 52 41 59 5 7 44
64 85 128 41 63 80 115 85 115 6 0 28 -9 50 -20 22 -11 48 -20 58 -20 11 0 25
-7 32 -15 7 -8 29 -19 50 -25 21 -6 57 -26 79 -44 23 -19 54 -37 71 -41 16 -4
32 -10 34 -14 8 -13 -65 -146 -131 -238 -80 -113 -202 -248 -300 -335 -239
-212 -582 -362 -907 -399 -116 -13 -305 -2 -459 27 -177 33 -391 125 -582 249
-96 62 -146 104 -251 210 -184 187 -236 260 -353 498 -55 111 -103 213 -107
226 -5 21 -4 23 12 16 11 -4 35 -11 54 -16z m1214 -5 c28 -14 66 -37 85 -51
29 -23 31 -27 16 -35 -34 -20 -175 60 -175 98 0 20 15 18 74 -12z m9044 -22
c4 -38 -15 -43 -43 -12 -15 16 -16 22 -5 35 21 25 45 14 48 -23z m-9841 3 c12
-9 57 -68 100 -133 138 -209 344 -393 530 -471 254 -108 517 -120 766 -37 182
61 300 138 468 305 85 85 118 127 168 213 35 59 68 112 75 118 17 13 46 3 46
-17 0 -21 -55 -127 -104 -202 -168 -252 -416 -434 -691 -508 -93 -25 -114 -27
-305 -27 -179 0 -215 3 -282 22 -283 78 -524 259 -702 526 -114 172 -144 263
-69 211z m172 -4 c10 -10 40 -51 66 -92 69 -108 145 -190 243 -265 164 -124
379 -210 570 -229 103 -10 103 -27 0 -20 -313 23 -587 159 -778 386 -60 72
-140 200 -140 224 0 20 16 19 39 -4z m5982 -31 c27 -16 60 -32 73 -36 34 -8
62 -39 44 -50 -7 -5 -79 -11 -159 -14 l-147 -5 19 25 c11 14 31 41 44 61 38
58 58 61 126 19z m129 21 c0 -13 -27 -21 -45 -15 -8 4 -12 10 -9 15 7 12 54
12 54 0z m3534 -45 c33 -28 29 -40 -33 -101 l-41 -39 0 31 c0 51 21 133 33
133 7 -1 25 -11 41 -24z m1022 -28 c68 -49 75 -59 104 -126 43 -103 46 -122
20 -155 -30 -38 -70 -37 -93 3 -18 29 -127 307 -127 322 0 18 26 5 96 -44z
m-4046 29 c0 -7 -6 -22 -14 -33 -20 -27 -43 -6 -27 25 13 23 41 29 41 8z
m3452 -2 c0 -5 -5 -11 -11 -13 -6 -2 -11 4 -11 13 0 9 5 15 11 13 6 -2 11 -8
11 -13z m-4292 -25 c-39 -33 -56 -36 -84 -15 -32 24 -1 42 79 44 l39 1 -34
-30z m470 0 c0 -5 -9 -10 -21 -10 -11 0 -17 5 -14 10 3 6 13 10 21 10 8 0 14
-4 14 -10z m3289 -88 c1 -65 -15 -106 -73 -181 -59 -76 -111 -121 -141 -121
-14 0 -39 13 -56 28 -26 23 -31 33 -25 55 3 15 67 90 144 169 151 157 149 157
151 50z m318 68 c56 -5 107 -11 114 -15 16 -10 6 -64 -57 -302 -38 -145 -60
-214 -76 -230 -62 -67 -83 0 -119 383 -13 145 -8 190 19 179 9 -4 63 -11 119
-15z m-4217 -5 c39 -20 38 -31 -2 -39 -41 -8 -625 -20 -618 -13 3 3 111 17
240 31 129 15 240 29 245 31 26 9 109 3 135 -10z m4478 -20 c23 -29 37 -94 24
-107 -6 -6 -20 9 -39 39 -38 63 -44 81 -30 87 21 8 25 6 45 -19z m-3937 -5
c25 -14 24 -30 -1 -30 -11 0 -20 2 -20 4 0 2 -3 11 -6 20 -7 19 0 20 27 6z
m3519 -236 c5 -109 10 -216 10 -238 l0 -39 -41 7 c-54 9 -95 31 -115 62 -15
22 -16 37 -5 147 7 67 19 137 28 154 22 46 94 126 105 115 4 -4 13 -98 18
-208z m380 145 c45 -70 53 -122 42 -292 -11 -154 -15 -160 -139 -161 l-88 -1
3 41 c1 23 20 104 41 180 22 77 49 176 61 221 13 48 26 80 32 77 6 -4 27 -33
48 -65z m768 41 c23 -17 42 -37 42 -46 0 -21 -18 -54 -30 -54 -8 0 -70 110
-70 125 0 12 19 3 58 -25z m-7958 -30 c12 -8 12 -10 -2 -15 -26 -10 -101 -1
-106 13 -5 15 85 17 108 2z m430 1 c0 -5 -27 -11 -60 -13 -79 -6 -181 2 -174
13 7 12 234 12 234 0z m6969 -153 c50 -73 105 -152 122 -175 17 -22 28 -46 25
-52 -8 -12 -85 -15 -102 -3 -18 12 -153 259 -155 284 -4 41 1 78 9 78 5 0 50
-60 101 -132z m-774 -133 c-9 -73 -15 -80 -56 -62 -57 23 -65 40 -40 83 12 20
39 57 59 82 l37 45 3 -49 c2 -27 1 -72 -3 -99z m731 -17 c54 -107 43 -148 -40
-148 -46 0 -68 23 -61 63 5 33 25 183 25 195 1 16 45 -48 76 -110z m-9339
-134 c-3 -3 -12 -4 -19 -1 -8 3 -5 6 6 6 11 1 17 -2 13 -5z"/>
<path d="M8086 5188 c-3 -7 -11 -44 -18 -81 l-13 -69 -32 46 c-39 56 -79 84
-95 68 -14 -14 -26 -101 -27 -195 -1 -53 2 -69 15 -74 25 -9 35 10 41 85 l6
70 38 -48 c54 -68 74 -77 95 -44 22 33 27 244 7 251 -7 3 -15 -1 -17 -9z"/>
<path d="M7742 5097 c-23 -27 -121 -282 -112 -291 5 -5 29 13 57 42 64 66 133
82 133 31 0 -22 32 -26 48 -6 11 14 -5 86 -40 175 -19 47 -28 58 -49 60 -14 2
-31 -3 -37 -11z m41 -106 c6 -24 0 -31 -25 -31 -21 0 -22 4 -8 31 14 24 26 24
33 0z"/>
<path d="M7565 5058 c-38 -10 -78 -27 -88 -37 -33 -32 -52 -261 -22 -261 19 0
35 31 35 67 0 45 24 70 80 83 54 13 80 32 80 57 0 16 -15 15 -109 -3 -56 -11
-33 16 34 40 59 21 88 48 70 65 -6 5 -37 1 -80 -11z"/>
<path d="M7292 4983 c-16 -14 -132 -276 -132 -298 0 -12 45 19 80 56 42 45 71
49 122 19 48 -28 63 -15 48 41 -22 83 -71 199 -85 199 -7 0 -22 -8 -33 -17z
m23 -114 c0 -13 -6 -24 -12 -24 -7 0 -13 3 -13 8 0 4 0 16 0 28 0 12 5 19 13
17 6 -3 12 -16 12 -29z"/>
<path d="M7028 4922 c-31 -9 -61 -21 -67 -27 -15 -15 -34 -246 -21 -259 21
-21 45 8 50 62 7 62 17 74 67 76 l38 1 5 -50 c6 -55 29 -69 41 -25 10 38 10
108 0 115 -6 3 -4 17 5 33 15 29 17 51 8 76 -8 20 -51 20 -126 -2z m82 -57 c0
-13 -55 -35 -87 -35 -27 0 -11 30 20 39 48 14 67 13 67 -4z"/>
<path d="M6820 4864 c-30 -8 -61 -21 -68 -28 -20 -20 -31 -82 -32 -175 l0 -84
43 7 c66 10 138 37 144 53 9 24 -14 30 -72 20 -63 -12 -73 -7 -57 27 8 17 27
29 69 43 47 14 59 23 61 42 4 22 2 23 -40 17 -71 -11 -77 -11 -80 -1 -2 6 28
21 65 34 50 17 67 28 65 40 -4 22 -32 23 -98 5z"/>
<path d="M6648 4808 c-8 -13 -32 -60 -53 -105 l-39 -83 -29 70 c-29 69 -57 94
-80 71 -22 -22 -38 -261 -17 -261 15 0 37 41 45 84 l7 40 18 -42 c33 -74 58
-68 104 23 16 30 29 55 31 55 1 0 0 -22 -3 -49 -3 -31 0 -51 8 -56 28 -18 44
35 55 181 7 90 6 94 -13 94 -11 0 -26 -10 -34 -22z"/>
<path d="M6262 4713 c-18 -16 -112 -245 -112 -273 0 -20 27 -9 60 25 18 19 49
42 68 51 34 16 35 16 57 -12 24 -30 55 -28 55 3 0 28 -46 171 -64 198 -19 29
-36 31 -64 8z m38 -113 c0 -23 -29 -35 -36 -15 -7 18 14 47 27 39 5 -3 9 -13
9 -24z"/>
<path d="M6047 4669 c-99 -24 -110 -44 -111 -199 l-1 -85 55 3 c62 3 125 29
125 52 0 17 -45 19 -104 5 l-34 -8 7 59 c12 99 14 103 60 114 60 16 87 32 84
49 -4 19 -30 22 -81 10z"/>
<path d="M6987 4203 c-12 -12 -7 -50 8 -63 12 -10 20 -6 46 20 26 26 30 34 18
41 -16 10 -63 12 -72 2z"/>
<path d="M6820 4176 c-15 -19 -9 -56 11 -69 21 -13 73 12 77 37 8 38 -62 62
-88 32z"/>
<path d="M6536 4118 c-21 -30 -20 -45 3 -58 62 -33 122 19 73 63 -26 23 -58
21 -76 -5z"/>
<path d="M6962 4088 c-7 -7 -12 -21 -12 -33 0 -29 19 -45 51 -45 20 0 28 6 33
25 13 50 -38 87 -72 53z"/>
<path d="M2170 3937 c-17 -9 -26 -22 -28 -44 -7 -68 90 -84 113 -19 8 25 6 31
-18 52 -32 28 -34 28 -67 11z m44 -42 c3 -9 -1 -18 -10 -22 -19 -7 -39 11 -30
26 10 16 33 13 40 -4z"/>
<path d="M842 3857 c-29 -31 -28 -63 3 -83 18 -12 31 -14 52 -6 24 8 28 14 27
47 -1 25 -8 43 -20 52 -25 18 -37 16 -62 -10z m41 -31 c6 -16 -2 -28 -14 -20
-12 7 -11 34 0 34 5 0 11 -6 14 -14z"/>
<path d="M2917 3753 c-12 -12 -7 -58 9 -81 18 -26 65 -30 84 -7 7 8 13 26 13
40 0 14 -6 32 -13 40 -12 15 -81 21 -93 8z m79 -34 c3 -6 1 -16 -4 -21 -13
-13 -45 8 -36 23 7 12 31 11 40 -2z"/>
<path d="M3536 3099 c-30 -24 -33 -55 -7 -86 26 -31 54 -29 85 8 31 37 32 53
6 79 -26 26 -51 25 -84 -1z"/>
<path d="M6578 3871 c-42 -14 -122 -76 -177 -138 -152 -170 -117 -513 66 -647
110 -81 284 -104 396 -53 122 56 213 176 244 321 33 156 -10 296 -129 415 -94
94 -120 105 -258 108 -63 1 -127 -2 -142 -6z m284 -54 c65 -38 144 -122 176
-187 25 -52 27 -64 27 -190 0 -124 -2 -139 -25 -184 -31 -62 -132 -166 -185
-192 -32 -15 -61 -19 -145 -19 -92 0 -111 3 -154 25 -236 119 -293 464 -109
661 80 86 163 120 284 116 71 -3 93 -7 131 -30z"/>
<path d="M6635 3641 c-68 -32 -88 -51 -110 -104 -18 -43 -19 -97 -4 -167 21
-99 94 -146 213 -138 55 3 70 8 94 32 41 39 82 127 82 176 0 74 -71 178 -145
211 -53 24 -60 24 -130 -10z m154 -49 c68 -50 90 -161 49 -242 -47 -92 -133
-114 -219 -54 -54 37 -70 72 -72 154 -2 64 0 71 28 101 53 56 84 71 140 65 27
-3 61 -14 74 -24z"/>
<path d="M6678 3495 c-53 -29 -47 -100 12 -130 29 -15 31 -15 55 9 35 36 42
72 18 104 -24 32 -48 37 -85 17z m64 -50 c-8 -48 -52 -57 -52 -11 0 29 9 38
35 34 14 -2 19 -9 17 -23z"/>
<path d="M10420 2786 c0 -28 276 -445 352 -532 31 -35 124 -72 154 -60 19 7
-12 71 -112 224 -41 62 -81 127 -90 145 -9 18 -46 75 -81 128 -60 90 -68 98
-108 108 -24 6 -60 11 -79 11 -31 0 -36 -3 -36 -24z m100 -26 c24 0 140 -164
263 -370 54 -92 65 -116 52 -118 -29 -6 -73 47 -200 240 -155 233 -173 267
-139 254 9 -3 20 -6 24 -6z"/>
<path d="M337 3094 c-11 -11 -8 -44 3 -44 15 0 24 30 13 41 -5 5 -12 6 -16 3z"/>
<path d="M195 3030 c-3 -5 -1 -19 6 -32 11 -21 12 -21 25 -3 8 10 14 25 14 32
0 15 -36 18 -45 3z"/>
<path d="M3133 2767 c-91 -78 -142 -127 -129 -127 30 0 248 158 244 178 -6 31
-28 21 -115 -51z"/>
<path d="M10882 2777 c-34 -36 -23 -77 20 -77 19 0 58 33 58 50 0 12 -37 50
-48 50 -5 0 -18 -10 -30 -23z"/>
<path d="M2098 2500 c-10 -6 -18 -22 -18 -36 0 -29 41 -74 68 -74 42 0 70 73
39 99 -21 17 -70 23 -89 11z m62 -45 c0 -8 -7 -15 -15 -15 -8 0 -15 7 -15 15
0 8 7 15 15 15 8 0 15 -7 15 -15z"/>
<path d="M1817 2440 c-136 -34 -233 -156 -271 -343 -26 -123 -18 -178 19 -147
9 7 37 58 64 114 83 170 144 232 256 256 28 5 60 12 73 15 18 4 22 12 22 40 0
25 -6 39 -22 49 -31 20 -94 27 -141 16z m125 -47 c15 -18 1 -28 -54 -37 -95
-15 -159 -64 -241 -184 -40 -60 -53 -72 -55 -56 -4 31 33 122 73 176 41 56
110 105 161 116 49 10 100 4 116 -15z"/>
<path d="M1425 2380 c-9 -41 2 -69 30 -76 30 -7 57 7 75 41 13 25 13 29 -9 46
-13 10 -38 19 -56 19 -29 0 -34 -4 -40 -30z m65 -24 c0 -8 -4 -17 -9 -21 -12
-7 -24 12 -16 25 9 15 25 12 25 -4z"/>
<path d="M2016 2259 c-31 -36 -33 -60 -8 -82 24 -22 34 -21 66 4 32 25 33 59
3 87 -30 28 -30 28 -61 -9z m39 -37 c-8 -8 -25 10 -19 20 4 6 9 5 15 -3 4 -7
6 -15 4 -17z"/>
<path d="M1338 2239 c-32 -18 -41 -48 -23 -75 18 -28 50 -31 83 -8 27 19 28
48 2 74 -22 22 -37 24 -62 9z m46 -28 c7 -10 -22 -37 -30 -28 -9 8 3 37 15 37
5 0 12 -4 15 -9z"/>
<path d="M1270 2041 c-14 -26 -13 -64 2 -79 7 -7 24 -12 39 -12 36 0 56 44 38
83 -15 33 -63 38 -79 8z m42 -43 c-15 -15 -26 -4 -18 18 5 13 9 15 18 6 9 -9
9 -15 0 -24z"/>
<path d="M6623 2271 c-76 -26 -118 -62 -154 -136 -59 -121 -47 -245 36 -353
124 -163 323 -165 439 -4 99 135 80 320 -43 435 -78 73 -176 94 -278 58z m216
-45 c73 -47 141 -175 141 -267 0 -104 -84 -228 -173 -254 -88 -26 -182 -13
-182 25 0 21 151 40 207 25 35 -9 47 15 65 124 7 45 20 93 28 104 8 12 15 25
15 30 0 4 -47 59 -105 122 -58 62 -105 117 -105 121 0 14 69 -5 109 -30z
m-149 16 c0 -15 -53 -82 -129 -165 -39 -42 -71 -82 -71 -88 0 -6 13 -28 30
-49 47 -59 62 -116 40 -150 -22 -35 -72 61 -87 166 -7 53 18 138 56 190 44 62
161 131 161 96z m40 -77 c0 -8 15 -21 34 -29 19 -8 45 -30 57 -49 12 -18 36
-42 53 -51 l31 -18 -24 -19 c-28 -23 -41 -24 -41 -3 0 53 -91 122 -143 109
-74 -19 -114 -138 -66 -199 28 -36 75 -56 113 -49 17 4 49 26 74 52 44 45 44
45 37 16 -10 -41 -10 -75 -1 -107 9 -32 -7 -38 -34 -13 -15 14 -22 14 -59 0
-30 -10 -49 -12 -68 -4 -20 7 -30 6 -43 -6 -9 -8 -24 -15 -34 -15 -14 0 -16 6
-11 33 10 50 -12 116 -48 150 l-32 30 23 15 c13 8 37 35 53 59 17 23 43 50 60
58 16 9 34 27 39 41 10 26 30 25 30 -1z m42 -122 c42 -38 7 -143 -48 -143 -35
0 -84 51 -84 87 0 62 85 98 132 56z"/>
<path d="M2574 2235 c-4 -9 0 -23 9 -32 21 -21 49 -9 45 19 -4 28 -45 38 -54
13z"/>
<path d="M5280 2233 c-16 -11 -20 -23 -18 -50 4 -42 24 -59 62 -49 38 9 54 48
33 79 -20 31 -50 39 -77 20z m40 -49 c0 -8 -4 -12 -10 -9 -5 3 -10 10 -10 16
0 5 5 9 10 9 6 0 10 -7 10 -16z"/>
<path d="M11578 2133 c-29 -35 -30 -44 -7 -69 27 -28 47 -31 65 -6 41 53 -15
125 -58 75z"/>
<path d="M10740 1899 c-26 -48 15 -98 64 -79 33 12 34 43 1 75 -30 31 -51 32
-65 4z"/>
<path d="M2186 1318 c-22 -31 -20 -45 8 -63 22 -15 27 -15 54 -1 41 21 49 46
22 68 -30 24 -66 22 -84 -4z"/>
<path d="M1843 1228 c-36 -45 -14 -108 37 -108 52 0 80 69 42 103 -22 20 -65
22 -79 5z m53 -33 c4 -8 3 -23 0 -32 -6 -15 -8 -15 -23 -1 -16 17 -12 48 7 48
6 0 13 -7 16 -15z"/>
<path d="M2089 1197 c-9 -7 -21 -22 -28 -35 -25 -47 45 -99 78 -58 32 39 -13
121 -50 93z"/>
</g>
</svg>
